<?xml version="1.0" encoding="utf-8"?>
<!-- Generator: Adobe Illustrator 16.0.0, SVG Export Plug-In . SVG Version: 6.00 Build 0)  -->
<!DOCTYPE svg PUBLIC "-//W3C//DTD SVG 1.1//EN" "http://www.w3.org/Graphics/SVG/1.1/DTD/svg11.dtd">
<svg version="1.1" id="Capa_1" xmlns="http://www.w3.org/2000/svg" xmlns:xlink="http://www.w3.org/1999/xlink" x="0px" y="0px"
	 width="640px" height="640px" viewBox="0 0 640 640" enable-background="new 0 0 640 640" xml:space="preserve">
<rect x="1" fill="#101820" width="640" height="640"/>
<text transform="matrix(1 0 0 1 180.3403 -374.2012)" font-family="'Simplifica'" font-size="122.2501">daniel</text>
<text transform="matrix(1 0 0 1 461.6602 -368.2012)" font-family="'Simplifica'" font-size="122.2501">Peláez</text>
<text transform="matrix(1 0 0 1 766.5273 -358.1851)" font-family="'Simplifica'" font-size="122.2501">{</text>
<text transform="matrix(1 0 0 1 856.5225 -343.5117)" font-family="'Simplifica'" font-size="122.2501">}</text>
<path fill="#6399AE" d="M1289.967,320.907c1.648,0,3.117,0.317,4.408,0.949c1.289,0.633,2.377,1.484,3.262,2.556
	c0.881,1.072,1.498,2.323,1.852,3.752c0.354,1.431,0.389,2.941,0.107,4.535l-2.006,11.38c-0.281,1.595-0.832,3.079-1.652,4.453
	c-0.818,1.375-1.828,2.584-3.029,3.627c-1.203,1.045-2.533,1.896-3.996,2.557c-1.465,0.66-2.977,1.045-4.533,1.154h-0.412h-0.33h-8
	l-3.663,20.779h-2.722l9.829-55.742h1.401h1.32H1289.967z M1296.875,332.698c0.213-1.208,0.17-2.362-0.131-3.463
	c-0.303-1.099-0.793-2.062-1.471-2.886c-0.68-0.825-1.525-1.484-2.537-1.979c-1.014-0.495-2.15-0.742-3.416-0.742h-7.998
	l-5.205,29.521h8.164c1.264,0,2.488-0.248,3.678-0.742c1.186-0.496,2.25-1.154,3.193-1.979c0.941-0.824,1.74-1.773,2.398-2.846
	c0.654-1.072,1.094-2.238,1.318-3.504L1296.875,332.698z"/>
<path fill="#6399AE" d="M1335.686,320.907c1.648,0,3.117,0.317,4.408,0.949c1.289,0.633,2.377,1.484,3.262,2.556
	c0.881,1.072,1.498,2.323,1.852,3.752c0.354,1.431,0.389,2.941,0.107,4.535l-2.006,11.38c-0.281,1.595-0.832,3.079-1.652,4.453
	c-0.818,1.375-1.828,2.584-3.029,3.627c-1.203,1.045-2.533,1.896-3.996,2.557c-1.465,0.66-2.977,1.045-4.533,1.154h-0.412h-0.33h-8
	l-3.663,20.779h-2.722l9.829-55.742h1.401h1.32H1335.686z M1342.594,332.698c0.213-1.208,0.17-2.362-0.131-3.463
	c-0.303-1.099-0.793-2.062-1.471-2.886c-0.68-0.825-1.525-1.484-2.537-1.979c-1.014-0.495-2.15-0.742-3.416-0.742h-7.998
	l-5.205,29.521H1330c1.264,0,2.488-0.248,3.678-0.742c1.186-0.496,2.25-1.154,3.193-1.979c0.941-0.824,1.74-1.773,2.398-2.846
	c0.654-1.072,1.094-2.238,1.318-3.504L1342.594,332.698z"/>
<g>
	<g>
		<g>
			<path fill="#6399AE" d="M133.241,312.178c4.121-5.214,6.834-11.511,8.136-18.897l7.895-44.772
				c0.848-4.81,2.532-9.305,5.055-13.478c2.522-4.175,5.609-7.826,9.257-10.955c3.647-3.129,7.754-5.614,12.324-7.461
				c4.566-1.846,9.255-2.769,14.059-2.769l-1.396,7.925c-3.686,0-7.256,0.723-10.711,2.166c-3.457,1.441-6.596,3.365-9.422,5.771
				c-2.828,2.406-5.243,5.212-7.25,8.416c-2.005,3.206-3.333,6.65-3.983,10.335l-7.885,44.724
				c-1.188,6.734-3.465,12.831-6.826,18.28c-3.363,5.448-7.622,9.615-12.771,12.497c4.132,2.885,6.922,7.056,8.363,12.505
				c1.439,5.452,1.567,11.541,0.38,18.275l-6.488,36.793c-0.65,3.691-0.537,7.137,0.337,10.345c0.877,3.199,2.304,6.005,4.28,8.414
				c1.978,2.402,4.438,4.328,7.388,5.771c2.949,1.439,6.26,2.164,9.945,2.164l-1.396,7.924c-4.804,0-9.167-0.921-13.082-2.759
				c-3.919-1.846-7.152-4.324-9.698-7.447c-2.544-3.124-4.337-6.808-5.375-11.047c-1.04-4.24-1.134-8.768-0.288-13.571l6.479-36.743
				c1.299-7.363,0.804-13.648-1.479-18.855C126.801,330.53,115.307,324,115.307,324S129.117,317.396,133.241,312.178z"/>
		</g>
	</g>
	<g>
		<g>
			<path fill="#6399AE" d="M506.548,335.922c-4.172,5.271-6.914,11.632-8.227,19.085h-0.244l-6.557,37.191
				c-0.859,4.862-2.6,9.445-5.221,13.737s-5.789,8.021-9.508,11.182c-3.717,3.161-7.846,5.67-12.389,7.538
				c-4.543,1.86-9.244,2.793-14.105,2.793l1.414-8.021c3.729,0,7.34-0.733,10.84-2.19c3.498-1.46,6.68-3.41,9.537-5.841
				c2.863-2.439,5.307-5.278,7.338-8.518c2.031-3.247,3.375-6.734,4.035-10.471l6.566-37.242c1.201-6.816,3.504-12.979,6.906-18.499
				c3.404-5.515,7.713-9.736,12.93-12.657c-4.188-2.916-7.008-7.134-8.467-12.649c-1.457-5.515-1.586-11.687-0.383-18.502
				l7.982-45.27c0.656-3.729,0.541-7.216-0.346-10.459c-0.885-3.245-2.33-6.086-4.33-8.521c-2.002-2.436-4.498-4.383-7.48-5.841
				c-2.986-1.46-6.338-2.192-10.066-2.192l1.416-8.022c4.859,0,9.23,0.936,13.119,2.804c3.883,1.868,7.129,4.383,9.727,7.55
				c2.604,3.169,4.463,6.863,5.582,11.088c1.117,4.224,1.25,8.773,0.393,13.644l-7.994,45.316h0.244
				c-1.32,7.476-0.822,13.85,1.488,19.128C513.06,317.365,524.693,324,524.693,324S510.714,330.659,506.548,335.922z"/>
		</g>
	</g>
</g>
<g>
	<g>
		<path fill="#6399AE" d="M1269.942,609.669l0.021-0.117c3.748,0,6.671-1.326,8.771-3.982c2.098-2.654,3.479-5.859,4.142-9.619
			l4.019-22.79c0.432-2.448,1.289-4.736,2.573-6.86c1.284-2.125,2.855-3.983,4.712-5.576s3.947-2.857,6.273-3.798
			c2.324-0.939,4.711-1.409,7.156-1.409l-0.711,4.034c-1.876,0-3.693,0.368-5.452,1.103c-1.76,0.733-3.357,1.713-4.796,2.938
			c-1.439,1.225-2.669,2.653-3.69,4.284c-1.021,1.632-1.696,3.385-2.027,5.261l-4.014,22.766c-0.604,3.428-1.764,6.531-3.475,9.305
			c-1.712,2.773-3.88,4.895-6.501,6.361c2.104,1.469,3.523,3.592,4.257,6.365c0.732,2.775,0.798,5.875,0.193,9.303l-3.303,18.729
			c-0.331,1.879-0.273,3.633,0.172,5.266c0.446,1.629,1.173,3.057,2.179,4.283c1.007,1.223,2.259,2.203,3.761,2.938
			c1.501,0.732,3.187,1.102,5.063,1.102l-0.711,4.033c-2.445,0-4.666-0.469-6.659-1.404c-1.995-0.939-3.641-2.201-4.937-3.791
			c-1.295-1.59-2.208-3.465-2.736-5.623c-0.529-2.158-0.577-4.463-0.146-6.908l3.298-18.703c0.661-3.748,0.409-6.947-0.753-9.598
			c-1.164-2.646-3.62-3.973-7.367-3.973L1269.942,609.669z"/>
	</g>
	<g>
		<path fill="#6399AE" d="M1543.424,613.585c-3.75,0-6.674,1.326-8.77,3.973c-2.098,2.65-3.477,5.85-4.137,9.598h-0.123
			l-3.297,18.703c-0.432,2.445-1.308,4.75-2.625,6.908c-1.318,2.158-2.911,4.033-4.781,5.623c-1.869,1.59-3.946,2.852-6.23,3.791
			c-2.285,0.936-4.648,1.404-7.094,1.404l0.711-4.033c1.875,0,3.691-0.369,5.451-1.102c1.76-0.734,3.359-1.715,4.797-2.938
			c1.439-1.227,2.668-2.654,3.689-4.283c1.021-1.633,1.697-3.387,2.029-5.266l3.303-18.729c0.604-3.428,1.762-6.527,3.473-9.303
			c1.712-2.773,3.879-4.896,6.502-6.365c-2.105-1.467-3.523-3.588-4.258-6.361c-0.732-2.773-0.797-5.877-0.192-9.305l4.015-22.766
			c0.33-1.875,0.271-3.629-0.174-5.26c-0.445-1.632-1.172-3.061-2.178-4.285c-1.007-1.225-2.262-2.204-3.762-2.938
			c-1.502-0.734-3.188-1.103-5.063-1.103l0.712-4.034c2.444,0,4.643,0.471,6.598,1.41c1.952,0.939,3.585,2.204,4.892,3.797
			c1.309,1.594,2.244,3.451,2.807,5.576c0.563,2.124,0.629,4.412,0.197,6.861l-4.02,22.789h0.123
			c-0.664,3.76-0.414,6.965,0.748,9.619c1.162,2.656,3.617,3.982,7.367,3.982l-0.021,0.117L1543.424,613.585z"/>
	</g>
</g>
<g>
	<g>
		<path fill="#6399AE" d="M1406.822,584.086l-4.392,24.9l-2.923,16.577l-1.604,9.1h-2.327l0.51-2.892
			c-1.068,0.986-2.266,1.775-3.591,2.363c-1.327,0.587-2.695,0.881-4.106,0.881c-1.317,0-2.508-0.247-3.572-0.74
			c-1.066-0.494-1.946-1.164-2.644-2.011s-1.191-1.845-1.481-2.998c-0.291-1.151-0.32-2.386-0.088-3.703l2.923-16.577
			c0.232-1.316,0.696-2.55,1.394-3.703c0.697-1.151,1.543-2.151,2.539-2.998s2.112-1.517,3.353-2.01
			c1.238-0.494,2.517-0.741,3.834-0.741c1.411,0,2.677,0.282,3.801,0.847c1.123,0.564,2.04,1.364,2.752,2.398l3.296-18.693H1406.822
			z M1388.8,632.688c0.987,0,1.948-0.188,2.886-0.564c0.936-0.376,1.777-0.882,2.524-1.518c0.747-0.634,1.384-1.386,1.915-2.257
			c0.529-0.869,0.881-1.799,1.056-2.786l2.923-16.577c0.174-0.987,0.149-1.915-0.073-2.786c-0.224-0.869-0.596-1.622-1.118-2.257
			c-0.523-0.635-1.188-1.14-1.99-1.517c-0.805-0.376-1.699-0.564-2.688-0.564c-0.987,0-1.949,0.188-2.885,0.564
			c-0.938,0.377-1.778,0.882-2.525,1.517s-1.386,1.388-1.915,2.257c-0.53,0.871-0.881,1.799-1.056,2.786l-2.923,16.577
			c-0.174,0.987-0.15,1.917,0.073,2.786c0.223,0.871,0.596,1.623,1.119,2.257c0.522,0.636,1.185,1.142,1.989,1.518
			C1386.916,632.501,1387.812,632.688,1388.8,632.688z"/>
	</g>
	<g>
		<path fill="#6399AE" d="M1424.54,585.708c1.411,0,2.669,0.271,3.772,0.812c1.104,0.541,2.034,1.27,2.789,2.187
			c0.755,0.918,1.283,1.987,1.586,3.21c0.301,1.224,0.332,2.517,0.091,3.88l-1.716,9.734c-0.241,1.365-0.711,2.635-1.412,3.81
			c-0.702,1.176-1.566,2.21-2.594,3.104c-1.028,0.895-2.167,1.622-3.419,2.187s-2.544,0.894-3.877,0.987h-0.353h-0.282h-6.843
			l-3.134,17.776h-2.327l8.407-47.686h1.199h1.128H1424.54z M1430.451,595.796c0.182-1.034,0.146-2.021-0.112-2.963
			c-0.258-0.939-0.677-1.764-1.258-2.469s-1.305-1.27-2.171-1.693c-0.866-0.423-1.84-0.635-2.921-0.635h-6.843l-4.453,25.254h6.984
			c1.08,0,2.129-0.212,3.145-0.636c1.015-0.423,1.926-0.987,2.732-1.692c0.806-0.706,1.49-1.517,2.052-2.434
			c0.561-0.917,0.937-1.916,1.128-2.998L1430.451,595.796z"/>
	</g>
</g>
<g>
	<g>
		<path fill="#6399AE" d="M320.554,210.127l-18.948,107.438l-12.611,71.525l-6.923,39.262H272.03l2.2-12.477
			c-4.61,4.256-9.776,7.661-15.494,10.197c-5.726,2.532-11.629,3.801-17.718,3.801c-5.684,0-10.82-1.066-15.413-3.194
			c-4.602-2.132-8.398-5.022-11.406-8.676c-3.009-3.653-5.141-7.959-6.392-12.936c-1.255-4.968-1.382-10.294-0.379-15.978
			l12.611-71.525c1.003-5.68,3.004-11.001,6.013-15.978c3.009-4.968,6.658-9.283,10.956-12.936
			c4.298-3.653,9.114-6.543,14.465-8.671c5.343-2.132,10.858-3.198,16.542-3.198c6.089,0,11.55,1.218,16.399,3.653
			c4.846,2.436,8.802,5.886,11.874,10.349l14.221-80.656H320.554z M242.792,419.832c4.26,0,8.406-0.809,12.451-2.436
			c4.037-1.622,7.668-3.805,10.892-6.548c3.223-2.734,5.971-5.979,8.263-9.737c2.284-3.75,3.801-7.762,4.555-12.021l12.611-71.525
			c0.75-4.26,0.645-8.263-0.316-12.021c-0.965-3.75-2.57-6.999-4.825-9.737c-2.258-2.739-5.124-4.917-8.587-6.543
			c-3.472-1.623-7.332-2.436-11.596-2.436c-4.26,0-8.411,0.813-12.447,2.436c-4.045,1.626-7.673,3.805-10.896,6.543
			c-3.224,2.739-5.979,5.987-8.263,9.737c-2.288,3.759-3.8,7.762-4.555,12.021l-12.611,71.525c-0.75,4.26-0.648,8.271,0.316,12.021
			c0.96,3.758,2.57,7.003,4.829,9.737c2.254,2.743,5.111,4.926,8.583,6.548C234.665,419.023,238.528,419.832,242.792,419.832z"/>
	</g>
	<g>
		<path fill="#6399AE" d="M397.003,217.126c6.088,0,11.516,1.171,16.276,3.501c4.766,2.334,8.777,5.478,12.034,9.434
			c3.257,3.96,5.537,8.575,6.843,13.85c1.298,5.279,1.433,10.858,0.392,16.74l-7.403,42.001c-1.04,5.891-3.067,11.368-6.092,16.437
			c-3.03,5.073-6.759,9.535-11.191,13.391c-4.438,3.859-9.351,6.999-14.752,9.435c-5.402,2.436-10.977,3.855-16.728,4.26h-1.521
			h-1.218h-29.524l-13.521,76.699h-10.043l36.276-205.748h5.175h4.866H397.003z M422.508,260.652
			c0.783-4.462,0.627-8.722-0.485-12.784c-1.112-4.054-2.92-7.61-5.427-10.652c-2.507-3.042-5.629-5.478-9.367-7.306
			c-3.737-1.824-7.938-2.739-12.603-2.739h-29.524l-19.214,108.963h30.136c4.66,0,9.186-0.914,13.567-2.743
			c4.378-1.824,8.31-4.26,11.79-7.302c3.476-3.047,6.43-6.544,8.853-10.5c2.419-3.957,4.041-8.267,4.866-12.936L422.508,260.652z"/>
	</g>
</g>
</svg>
