<?xml version="1.0" encoding="utf-8"?>
<!-- Generator: Adobe Illustrator 16.0.0, SVG Export Plug-In . SVG Version: 6.00 Build 0)  -->
<!DOCTYPE svg PUBLIC "-//W3C//DTD SVG 1.1//EN" "http://www.w3.org/Graphics/SVG/1.1/DTD/svg11.dtd">
<svg version="1.1" id="Ñëîé_1" xmlns="http://www.w3.org/2000/svg" xmlns:xlink="http://www.w3.org/1999/xlink" x="0px" y="0px"
	 width="3940.585px" height="2200px" viewBox="0 0 3940.585 2200" enable-background="new 0 0 3940.585 2200" xml:space="preserve">
<g>
	<g>
		<path fill="#BBDBF3" d="M2773.282,196.932v-8.202l47.349-25.625v12.527l-31.628,17.199l31.628,17.199v12.527L2773.282,196.932z"/>
		<path fill="#BBDBF3" d="M3695.867,877.685v-12.527l31.629-17.199l-31.629-17.198v-12.527l47.35,25.625v8.202L3695.867,877.685z"/>
		<rect x="2838.193" y="183.158" fill="#BBDBF3" width="188.302" height="19.346"/>
		<rect x="2773.282" y="257.917" fill="#BBDBF3" width="188.302" height="19.346"/>
		<rect x="2813.393" y="309.996" fill="#BBDBF3" width="188.303" height="19.346"/>
		<rect x="2813.393" y="453.332" fill="#BBDBF3" width="188.303" height="19.346"/>
		<rect x="2813.393" y="497.671" fill="#BBDBF3" width="188.303" height="19.346"/>
		<rect x="2878.098" y="359.597" fill="#BBDBF3" width="567.879" height="19.346"/>
		<rect x="2878.098" y="544.78" fill="#BBDBF3" width="758.639" height="19.345"/>
		<rect x="2878.098" y="693.095" fill="#BBDBF3" width="758.639" height="19.345"/>
		<rect x="2949.449" y="838.286" fill="#BBDBF3" width="726.812" height="19.345"/>
		<rect x="2878.098" y="743.49" fill="#BBDBF3" width="162.49" height="19.345"/>
		<rect x="2878.098" y="791.426" fill="#BBDBF3" width="162.49" height="19.345"/>
		<rect x="2878.098" y="592.125" fill="#BBDBF3" width="758.639" height="19.345"/>
		<rect x="2878.098" y="639.469" fill="#BBDBF3" width="410.458" height="19.345"/>
		<rect x="2878.098" y="404.18" fill="#BBDBF3" width="174.131" height="19.346"/>
	</g>
	<path fill="#E5F0F8" d="M987.492,298.236H830.896c-9.332,0-16.896,7.565-16.896,16.896v90.154c0,9.331,7.564,16.896,16.896,16.896
		h62.953v20.338h-41.431c-0.811,0-1.468,0.657-1.468,1.468v5.203c0,0.811,0.657,1.468,1.468,1.468H965.97
		c0.811,0,1.468-0.657,1.468-1.468v-5.203c0-0.811-0.657-1.468-1.468-1.468h-41.431v-20.338h62.953
		c9.332,0,16.896-7.565,16.896-16.896v-90.154C1004.388,305.801,996.824,298.236,987.492,298.236z"/>
	<path fill="#E5F0F8" d="M3547.227,1279.36c15.672,22.19,44.868,28.923,68.534,17.383l58.177,82.371l14.274-10.082l-58.17-82.359
		c18.854-18.426,22.224-48.186,6.525-70.413c-17.412-24.653-51.55-30.624-76.203-13.212
		C3535.711,1220.461,3529.814,1254.707,3547.227,1279.36z M3626.859,1223.117c13.561,19.198,8.947,46.002-10.252,59.563
		c-19.309,13.637-46.003,8.945-59.563-10.254c-13.637-19.307-9.056-45.924,10.253-59.561
		C3586.496,1199.305,3613.223,1203.81,3626.859,1223.117z"/>
	<path fill="#E5F0F8" d="M353.317,2024.029c0,0-243.219-578.229,11.865-910.719c255.083-332.49,496.325,75.235,761.295-51.313
		c264.97-126.548,240.517-964.632,880.565-933.706c640.048,30.925,638.729,629.986,957.749,818.049
		c319.019,188.063,711.86,161.261,603.763,1077.689H353.317z"/>
	<g>
		<rect x="1095.813" y="235.461" fill="#BBDBF3" width="1682.624" height="1230.922"/>
		<rect x="1111.426" y="251.071" fill="#FFFFFF" width="1651.4" height="1199.697"/>
		<rect x="1111.426" y="251.071" fill="#BBDBF3" width="1651.4" height="113.063"/>
		<g>
			
				<line fill="none" stroke="#FFFFFF" stroke-width="10.4305" stroke-linecap="round" stroke-linejoin="round" stroke-miterlimit="10" x1="2658.438" y1="340.125" x2="2723.481" y2="275.081"/>
			
				<line fill="none" stroke="#FFFFFF" stroke-width="10.4305" stroke-linecap="round" stroke-linejoin="round" stroke-miterlimit="10" x1="2723.481" y1="340.125" x2="2658.438" y2="275.081"/>
		</g>
		<rect x="1111.426" y="364.134" fill="#E5F0F8" width="391.455" height="1086.633"/>
		<rect x="1150.475" y="425.075" fill="#FFFFFF" width="313.356" height="25.247"/>
		<rect x="1150.475" y="491.792" fill="#FFFFFF" width="313.356" height="25.247"/>
		<rect x="1150.475" y="558.508" fill="#FFFFFF" width="313.356" height="25.247"/>
		<rect x="1150.475" y="625.224" fill="#FFFFFF" width="313.356" height="25.247"/>
		<rect x="1150.475" y="691.94" fill="#FFFFFF" width="313.356" height="25.247"/>
		<rect x="1150.475" y="758.656" fill="#FFFFFF" width="313.356" height="25.247"/>
		<rect x="1150.475" y="825.373" fill="#FFFFFF" width="313.356" height="25.247"/>
		<g>
			<rect x="1546.419" y="1038.145" fill="#BBDBF3" width="502.138" height="386.217"/>
			<polygon fill="#FFFFFF" points="1909.078,1225.478 1720.263,1116.466 1720.263,1334.49 			"/>
			<rect x="1546.419" y="1403.339" fill="#E5F0F8" width="502.138" height="21.022"/>
			<rect x="1546.419" y="1403.339" fill="#F74242" width="246.484" height="21.022"/>
			<path fill="#FFFFFF" d="M1810.813,1424.361h-31.148c-5.781,0-10.511-4.73-10.511-10.512l0,0c0-5.78,4.73-10.511,10.511-10.511
				h31.148c5.781,0,10.511,4.73,10.511,10.511l0,0C1821.324,1419.631,1816.595,1424.361,1810.813,1424.361z"/>
		</g>
		<rect x="1150.475" y="892.089" fill="#FFFFFF" width="313.356" height="25.247"/>
		<rect x="1150.475" y="958.805" fill="#FFFFFF" width="313.356" height="25.247"/>
		<rect x="1150.475" y="1025.521" fill="#FFFFFF" width="313.356" height="25.247"/>
		<rect x="1150.475" y="1092.237" fill="#FFFFFF" width="313.356" height="25.247"/>
		<rect x="1150.475" y="1158.953" fill="#FFFFFF" width="313.356" height="25.247"/>
		
			<rect x="1672.182" y="393.009" fill="none" stroke="#BBDBF3" stroke-width="4.9084" stroke-miterlimit="10" width="799.862" height="64.133"/>
		
			<rect x="2344.172" y="393.009" fill="#BBDBF3" stroke="#BBDBF3" stroke-width="3.4316" stroke-miterlimit="10" width="127.872" height="64.133"/>
		
			<rect x="2594.501" y="393.009" fill="#BBDBF3" stroke="#BBDBF3" stroke-width="3.4316" stroke-miterlimit="10" width="127.872" height="64.133"/>
		<path fill="#FFFFFF" d="M2386.002,438.113c9.207,5.144,20.56,2.609,26.913-5.397l34.177,19.096l3.309-5.922l-34.172-19.094
			c3.515-9.612-0.292-20.598-9.515-25.751c-10.229-5.715-23.184-2.086-28.899,8.143
			C2372.1,419.417,2375.773,432.398,2386.002,438.113z M2404.464,405.073c7.966,4.451,10.842,14.61,6.391,22.576
			c-4.476,8.011-14.61,10.842-22.576,6.391c-8.011-4.476-10.866-14.564-6.391-22.576
			C2386.339,403.498,2396.453,400.597,2404.464,405.073z"/>
		
			<rect x="1546.419" y="504.415" fill="none" stroke="#BBDBF3" stroke-width="4.8879" stroke-linecap="round" stroke-linejoin="round" stroke-miterlimit="10" stroke-dasharray="19.5518" width="1175.954" height="506.299"/>
		<g>
			<rect x="2088.752" y="1322.817" fill="#E5F0F8" width="633.621" height="101.544"/>
			<polygon fill="#FFFFFF" points="2189.717,1373.59 2124.684,1336.043 2124.684,1411.136 			"/>
			
				<line fill="none" stroke="#FFFFFF" stroke-width="4.1304" stroke-miterlimit="10" x1="2218.698" y1="1373.59" x2="2680.935" y2="1373.59"/>
			<rect x="2218.698" y="1356.511" fill="#FFFFFF" width="8.539" height="34.157"/>
		</g>
		<g>
			<rect x="2088.752" y="1180.48" fill="#E5F0F8" width="633.621" height="101.544"/>
			<polygon fill="#FFFFFF" points="2189.717,1231.253 2124.684,1193.706 2124.684,1268.8 			"/>
			
				<line fill="none" stroke="#FFFFFF" stroke-width="4.1304" stroke-miterlimit="10" x1="2218.698" y1="1231.253" x2="2680.935" y2="1231.253"/>
			<rect x="2218.698" y="1214.174" fill="#FFFFFF" width="8.539" height="34.158"/>
		</g>
		<g>
			<rect x="2088.752" y="1038.145" fill="#E5F0F8" width="633.621" height="101.544"/>
			<polygon fill="#FFFFFF" points="2189.717,1088.917 2124.684,1051.37 2124.684,1126.463 			"/>
			
				<line fill="none" stroke="#FFFFFF" stroke-width="4.1304" stroke-miterlimit="10" x1="2218.698" y1="1088.917" x2="2680.935" y2="1088.917"/>
			<rect x="2218.698" y="1071.838" fill="#FFFFFF" width="8.539" height="34.157"/>
		</g>
	</g>
	<g>
		<path fill="#BBDBF3" d="M1238.354,1959.07H559.904c-35.373,0-64.048-28.676-64.048-64.049V584.443
			c0-35.373,28.675-64.048,64.048-64.048h678.449c35.373,0,64.048,28.675,64.048,64.048v1310.579
			C1302.402,1930.395,1273.727,1959.07,1238.354,1959.07z"/>
		<g>
			<path fill="#FFFFFF" d="M1249.385,764.487c0,63.7-51.651,115.351-115.351,115.351c-34.745,0-65.895-15.364-87.003-39.695
				c-17.7-20.222-28.348-46.701-28.348-75.655c0-63.7,51.651-115.351,115.351-115.351
				C1197.734,649.136,1249.385,700.787,1249.385,764.487z"/>
			<path fill="#BBDBF3" d="M1134.034,760.144c-49.689-2.802-74.768,42.125-87.003,79.999c21.108,24.331,52.258,39.695,87.003,39.695
				s65.895-15.364,87.003-39.695C1208.802,802.269,1183.723,757.342,1134.034,760.144z"/>
			<path fill="#BBDBF3" d="M1176.026,723.658c0,34.136-18.797,69.876-41.984,69.876s-41.985-35.74-41.985-69.876
				c0-34.136,18.797-53.742,41.985-53.742S1176.026,689.522,1176.026,723.658z"/>
		</g>
		<rect x="555.287" y="649.136" fill="#FFFFFF" width="291.496" height="31.157"/>
		<rect x="555.287" y="716.147" fill="#FFFFFF" width="368.615" height="31.157"/>
		<rect x="555.287" y="988.416" fill="#FFFFFF" width="217.207" height="25.471"/>
		<rect x="555.287" y="1555.135" fill="#FFFFFF" width="217.207" height="25.471"/>
		<rect x="555.287" y="1607.137" fill="#FFFFFF" width="362.955" height="25.471"/>
		<rect x="555.287" y="1036.526" fill="#FFFFFF" width="275.931" height="25.471"/>
		<path fill="#FFFFFF" d="M853.561,1220.834H572.566c-9.503,0-17.279-7.775-17.279-17.278v-78.646
			c0-9.503,7.775-17.278,17.279-17.278h280.995c9.503,0,17.278,7.775,17.278,17.278v78.646
			C870.839,1213.059,863.063,1220.834,853.561,1220.834z"/>
		<path fill="#FFFFFF" d="M944.697,1220.834h280.995c9.503,0,17.278-7.775,17.278-17.278v-78.646
			c0-9.503-7.775-17.278-17.278-17.278H944.697c-9.503,0-17.278,7.775-17.278,17.278v78.646
			C927.419,1213.059,935.194,1220.834,944.697,1220.834z"/>
		<path fill="#FFFFFF" d="M1214.857,1508.438H583.4c-17.226,0-31.32-14.094-31.32-31.32v-182.513c0-17.227,14.094-31.32,31.32-31.32
			h631.457c17.226,0,31.32,14.094,31.32,31.32v182.513C1246.178,1494.345,1232.083,1508.438,1214.857,1508.438z"/>
		<g>
			<rect x="590.31" y="1339.696" fill="#E5F0F8" width="244.092" height="21.226"/>
			<rect x="590.31" y="1385.331" fill="#E5F0F8" width="372.506" height="46.696"/>
		</g>
		<path fill="#E5F0F8" d="M1235.033,1782.247H563.225c-6.129,0-11.145-5.016-11.145-11.145v-98.696
			c0-6.129,5.015-11.145,11.145-11.145h671.809c6.129,0,11.145,5.016,11.145,11.145v98.696
			C1246.178,1777.231,1241.163,1782.247,1235.033,1782.247z"/>
		<rect x="586.064" y="1710.08" fill="#FFFFFF" width="301.401" height="23.348"/>
		<rect x="1127.843" y="1710.08" fill="#FFFFFF" width="84.35" height="23.348"/>
		<path fill="#E5F0F8" d="M1235.033,1925.872H563.225c-6.129,0-11.145-5.015-11.145-11.145v-98.695
			c0-6.13,5.015-11.146,11.145-11.146h671.809c6.129,0,11.145,5.016,11.145,11.146v98.695
			C1246.178,1920.857,1241.163,1925.872,1235.033,1925.872z"/>
		<rect x="586.064" y="1853.706" fill="#FFFFFF" width="301.401" height="23.348"/>
		<rect x="1127.843" y="1853.706" fill="#FFFFFF" width="84.35" height="23.348"/>
	</g>
	<g>
		<path fill="#BBDBF3" d="M1046.848,1636.633l817.486,25.047c60.435,1.852,117.493,28.295,157.969,73.211l208.265,231.112
			c8.567,9.507,3.148,24.727-9.5,26.679l-13.194,2.037c-14.115,2.178-28.325-3.311-37.311-14.413L2005.5,1776.354
			c-42.058-51.966-105.311-82.189-172.163-82.261l-832.494-0.896L1046.848,1636.633z"/>
		<path fill="#BBDBF3" d="M2157.924,1636.633l-817.486,25.047c-60.434,1.852-117.493,28.295-157.969,73.211l-208.265,231.112
			c-8.567,9.507-3.148,24.727,9.5,26.679l13.194,2.037c14.115,2.178,28.325-3.311,37.31-14.413l165.063-203.952
			c42.057-51.966,105.311-82.189,172.163-82.261l832.494-0.896L2157.924,1636.633z"/>
		<path fill="#93ACBF" d="M2268.456,1648.216c-19.448-3.242-61.831-12.264-96.391-33.3c-46.464-28.282-141.41-62.624-231.306-59.594
			s-143.935,18.686-180.297,46.463c-36.362,27.777-44.948,30.302-75.755,25.252c-30.807-5.051-82.321-5.051-82.321-5.051
			s-51.514,0-82.321,5.051c-30.807,5.05-39.393,2.525-75.755-25.252c-36.363-27.777-90.401-43.433-180.297-46.463
			s-184.843,31.312-231.306,59.594c-34.56,21.036-76.943,30.058-96.391,33.3c-6.176,1.029-10.676,6.385-10.676,12.646v20.326
			c0,6.444,4.771,11.939,11.168,12.719c14.467,1.763,39.059,7.828,49.436,28.582c15.151,30.303,23.231,127.269,83.835,193.934
			c60.604,66.664,135.35,106.057,258.578,77.775c123.228-28.282,168.681-137.369,185.853-189.894
			c17.171-52.523,17.676-86.866,17.676-86.866s-17.676-16.666-8.585-32.827c9.09-16.161,78.785-16.666,78.785-16.666
			s69.695,0.505,78.785,16.666c9.091,16.161-8.585,32.827-8.585,32.827s0.505,34.343,17.676,86.866
			c17.171,52.524,62.625,161.611,185.853,189.894c123.229,28.281,197.973-11.111,258.577-77.775
			c60.604-66.665,68.685-163.631,83.836-193.934c10.377-20.754,34.969-26.819,49.436-28.582c6.397-0.779,11.169-6.274,11.169-12.719
			v-20.326C2279.133,1654.601,2274.632,1649.245,2268.456,1648.216z"/>
		<g>
			<defs>
				<path id="SVGID_1_" d="M1272.767,1570.979c67.337,0.276,181.813,35.016,210.094,121.208s-6.734,281.472-210.094,290.899
					c-203.361,9.428-254.538-212.787-224.909-288.206S1137.754,1570.422,1272.767,1570.979z"/>
			</defs>
			<use xlink:href="#SVGID_1_"  overflow="visible" fill="#E5F0F8"/>
			<clipPath id="SVGID_2_">
				<use xlink:href="#SVGID_1_"  overflow="visible"/>
			</clipPath>
			<g clip-path="url(#SVGID_2_)">
				<polygon fill="#BBDBF3" points="1213.461,1641.716 1178.943,1693.348 1000.861,1693.173 1046.827,1636.635 				"/>
				<polygon fill="#BBDBF3" points="1307.906,1644.637 1291.902,1668.583 1275.256,1693.465 1242.14,1693.465 1247.688,1685.171 
					1275.432,1643.644 				"/>
				<path fill="#6DA8C6" d="M987.193,1980.301l21.611,14.427c-3.913,0.583-7.885,0.583-11.915,0l-13.2-2.045
					c-12.616-1.928-18.048-17.172-9.462-26.692l87.26-96.838L987.193,1980.301z"/>
				<path fill="#BBDBF3" d="M1291.902,1668.583l-16.646,24.882l-24.297,36.328v0.059c-19.391,12.5-36.854,28.152-51.69,46.492
					l-72.015,88.953l114.886-171.832l5.549-8.294C1261.764,1678.045,1276.6,1672.496,1291.902,1668.583z"/>
				<path fill="#BBDBF3" d="M2203.926,1693.173l-231.759,0.233h-0.117l-369.657,0.467h-16.471l-214.47,0.233
					c-20.092,0-39.951,2.746-58.933,8.061l5.782-8.644l21.26-31.773c0.292-0.059,0.584-0.059,0.876-0.059l261.254-8.002h0.701
					l555.507-17.055L2203.926,1693.173z"/>
				<polygon fill="#FFFFFF" points="1380.038,1487.172 1275.432,1643.644 1213.461,1641.716 1336.292,1457.968 				"/>
				<path fill="#F2FDFF" d="M1127.137,1865.473l-96.254,144.031l-22.078-14.776c9.812-1.402,18.924-6.483,25.407-14.427
					L1127.137,1865.473z"/>
				<path fill="#FFFFFF" d="M1232.678,1693.406c-18.515,11.155-35.511,25.115-50.23,41.469l-120.902,134.219l117.397-175.746
					L1232.678,1693.406z"/>
				<polygon fill="#FFFFFF" points="1429.159,1527.647 1350.134,1645.921 1307.906,1644.637 1399.429,1507.73 				"/>
				<path fill="#E5F0F8" d="M1350.134,1645.921l-10.572,15.829l-21.26,31.773l-5.782,8.644
					c-21.844,6.017-42.637,15.361-61.561,27.626l24.297-36.328l16.646-24.882l16.003-23.946L1350.134,1645.921z"/>
				<path fill="#FFFFFF" d="M1312.52,1702.167l-232.459,347.813l-29.787-19.916l200.686-300.212v-0.059
					C1269.883,1717.528,1290.676,1708.184,1312.52,1702.167z"/>
				<path fill="#E5F0F8" d="M1275.432,1643.644l-27.743,41.527l-5.549,8.294l-114.886,171.832l-0.117,0.176l-92.925,114.828
					c-6.483,7.943-15.595,13.024-25.407,14.427l-21.611-14.427l74.294-111.148l0.059-0.059l120.902-134.219
					c14.719-16.354,31.715-30.313,50.23-41.469l-53.734-0.059l34.518-51.632L1275.432,1643.644z"/>
				<path fill="#BBDBF3" d="M2221.038,1992.683l-13.142,2.045c-14.134,2.161-28.327-3.329-37.321-14.427l-165.058-203.957
					c-42.053-51.982-105.308-82.179-172.184-82.237l-230.94-0.233h-16.471l-267.621-0.35l21.26-31.773l10.572-15.829l251.559,7.769
					h0.701l261.955,8.002c38.374,1.168,75.403,12.266,107.702,31.715h0.117c18.515,11.272,35.336,25.115,50.113,41.469
					l208.278,231.115C2239.145,1975.511,2233.713,1990.755,2221.038,1992.683z"/>
			</g>
		</g>
		<path fill="#E5F0F8" d="M1932.005,1570.979c-67.337,0.276-181.813,35.016-210.094,121.208
			c-28.282,86.192,6.734,281.472,210.094,290.899c203.361,9.428,254.538-212.787,224.909-288.206
			S2067.018,1570.422,1932.005,1570.979z"/>
		<circle fill="#BBDBF3" cx="963.686" cy="1674.005" r="9.427"/>
		<g>
			<defs>
				<path id="SVGID_3_" d="M1932.005,1570.979c-67.337,0.276-181.813,35.016-210.094,121.208
					c-28.282,86.192,6.734,281.472,210.094,290.899c203.361,9.428,254.538-212.787,224.909-288.206
					S2067.018,1570.422,1932.005,1570.979z"/>
			</defs>
			<clipPath id="SVGID_4_">
				<use xlink:href="#SVGID_3_"  overflow="visible"/>
			</clipPath>
			<g clip-path="url(#SVGID_4_)">
				<path fill="#BBDBF3" d="M2221.038,1992.683l-13.142,2.045c-14.134,2.161-28.327-3.329-37.321-14.427l-165.058-203.957
					c-14.719-18.164-32.008-33.643-51.106-46.142l22.604-33.7h0.059c16.587,10.688,31.773,23.479,45.207,38.373l208.278,231.115
					C2239.145,1975.511,2233.713,1990.755,2221.038,1992.683z"/>
				<path fill="#BBDBF3" d="M1880.41,1645.162l-11.272,16.704l-21.318,31.716l-245.426,0.291l-369.715-0.467
					c32.299-19.449,69.329-30.547,107.761-31.715l261.955-8.002L1880.41,1645.162z"/>
				<path fill="#BBDBF3" d="M1978.008,1642.125l-26.984,40.125l-7.534,11.215l-14.952,22.194
					c-8.761-4.147-17.814-7.769-27.042-10.747l7.71-11.389l14.66-21.787l19.158-28.502L1978.008,1642.125z"/>
				<polygon fill="#BBDBF3" points="2203.926,1693.173 1979.117,1693.406 2014.395,1641.016 2157.9,1636.635 				"/>
				<path fill="#E5F0F8" d="M1943.022,1643.234l-19.158,28.502l-14.66,21.787l-7.71,11.389
					c-17.463-5.666-35.745-9.229-54.318-10.338l0.643-0.992l21.318-31.716l11.272-16.704L1943.022,1643.234z"/>
				<path fill="#FFFFFF" d="M1847.176,1694.574c18.574,1.109,36.855,4.672,54.318,10.338l-182.638,271.417l-42.17-28.386
					L1847.176,1694.574z"/>
				<polygon fill="#FFFFFF" points="2019.185,1530.042 1943.022,1643.234 1880.41,1645.162 1976.956,1501.656 				"/>
				<path fill="#E5F0F8" d="M1979.117,1693.406h-7.067c1.636,1.051,3.329,2.044,4.965,3.096l-22.604,33.7
					c-8.294-5.432-16.938-10.279-25.874-14.543l14.952-22.194l7.534-11.215l26.984-40.125l36.387-1.109L1979.117,1693.406z"/>
				<path fill="#FFFFFF" d="M1928.537,1715.659c8.936,4.264,17.58,9.111,25.874,14.543l-178.316,264.992l-24.531-16.471
					L1928.537,1715.659z"/>
				<path fill="#DEECFF" d="M1972.05,1693.406h7.067l-2.044,3.096h-0.059C1975.379,1695.45,1973.686,1694.457,1972.05,1693.406z"/>
				<polygon fill="#FFFFFF" points="2076.365,1548.907 2014.395,1641.016 1978.008,1642.125 2051.834,1532.378 				"/>
			</g>
		</g>
		<circle fill="#BBDBF3" cx="1010.27" cy="1674.005" r="9.427"/>
		<circle fill="#BBDBF3" cx="2241.086" cy="1674.005" r="9.427"/>
		<circle fill="#BBDBF3" cx="2194.502" cy="1674.005" r="9.427"/>
	</g>
	<g>
		<path fill="#F74242" d="M909.845,1204.512L909.845,1204.512c-12.911,6.948-29.159,2.07-36.108-10.841l-52.23-97.045
			c-6.949-12.911-2.071-29.159,10.84-36.108l0,0c12.911-6.948,29.159-2.07,36.108,10.84l52.231,97.045
			C927.634,1181.314,922.756,1197.563,909.845,1204.512z"/>
		<path fill="#FDAE97" d="M885.069,1208.084c-13.269-6.4-19.503-21.221-13.854-32.934l62.153-94.455
			c1.38-3.604,2.807-7.792,3.565-11.402c1.765-8.395,9.246-30.631,12.44-29.53c3.194,1.102,1.157,17.376,2.878,16.739
			c1.72-0.637,6.002-12.227,7.436-17.313c1.433-5.086,2.75-16.484,5.639-17.578c2.89-1.095,5.543,2.603,5.543,2.603
			s-0.03-4.411,2.727-3.899c2.757,0.513,4.471,7.375,4.471,7.375s-0.267-2.453,2.633-1.132c2.899,1.32,1.944,12.404,1.944,12.404
			s0.979-2.006,3.042-0.705c2.063,1.301-0.801,15.723-6.064,25.069c-4.697,8.344-18.062,26.928-20.878,30.824l-39.276,104.278
			C913.818,1210.139,898.339,1214.485,885.069,1208.084z"/>
		<path fill="#322A28" d="M777.041,983.807c0,0-13.855,10.104-10.847,30.965c3.008,20.86,4.693,32.15-8.495,33.227
			c-13.188,1.077-39.605-6.785-41.743,10.862c-2.139,17.647,10.307,29.405-8.271,32.657c-18.578,3.253-21.117,27.175-21.117,27.175
			s66.345,41.777,129.418,3.414c63.073-38.364-4.144-64.824-4.144-64.824L777.041,983.807z"/>
		<polygon fill="#E89780" points="908.146,1145.104 860.887,1167.482 858.621,1164.138 905.153,1139.544 		"/>
		<g>
			<rect x="736.757" y="1563.327" fill="#322A28" width="216.251" height="11.463"/>
			<rect x="715.083" y="1713.76" fill="#322A28" width="216.251" height="11.463"/>
			<rect x="698.411" y="1864.191" fill="#322A28" width="209.64" height="11.463"/>
			<polygon fill="#322A28" points="885.425,2011.933 897.651,2011.933 969.094,1457.896 956.868,1457.896 			"/>
			<polygon fill="#322A28" points="676.644,2011.933 688.87,2011.933 760.313,1457.896 748.086,1457.896 			"/>
			<polygon fill="#322A28" points="831.817,2011.933 819.591,2011.933 748.148,1457.896 760.375,1457.896 			"/>
			<polygon fill="#322A28" points="1040.598,2011.933 1028.372,2011.933 956.93,1457.896 969.156,1457.896 			"/>
			<rect x="750.058" y="1457.896" fill="#322A28" width="216.251" height="11.463"/>
		</g>
		<path fill="#0775EF" d="M778.256,1304.299c20.555,20.108,66.777,32.409,118.789,27.583c52.013-4.825,85.771-4.468,85.771-4.468
			c23.802,0,43.098-19.296,43.098-43.099c0-23.802-19.296-43.098-43.098-43.098l-196.054-6.194L778.256,1304.299z"/>
		<path fill="#F74242" d="M787.291,1049.46l-46.652,21.129c0,0,10.373,120.097,11.445,133.233
			c1.072,13.138-2.949,32.978-2.949,32.978h111.8c0,0-1.34-64.346,6.167-82.309c5.086-12.17,8.58-19.572,5.63-33.514
			s-24.528-38.588-21.043-62.717l-24.337-7.795L787.291,1049.46z"/>
		<path fill="#F74242" d="M728.446,1228.545L728.446,1228.545c-14.415-2.682-24.014-16.669-21.333-31.084l20.155-108.35
			c2.681-14.415,16.669-24.014,31.083-21.333l0,0c14.415,2.682,24.014,16.669,21.333,31.083l-20.155,108.35
			C756.849,1221.626,742.861,1231.226,728.446,1228.545z"/>
		<path fill="#322A28" d="M835.66,985.035c0,0,7.181-15.252-7.799-20.796L835.66,985.035z"/>
		<path fill="#FDAE97" d="M787.093,1049.453l0.032,0.031c0.501,0.878,8.963,15.138,24.979,13.947
			c14.167-1.066,15.232-12.976,15.232-12.976v-54.251h-34.476L787.093,1049.453z"/>
		<polygon fill="#E89780" points="827.335,1044.277 803.282,1018.122 827.35,1027.163 		"/>
		<path fill="#FDAE97" d="M803.828,1027.43c10.87,7.228,24.117,7.935,32.398,2.991c8.287-4.912,7.638-17.297,5.679-25.244
			c-0.006-0.031-0.006-0.031-0.013-0.062c-0.409-1.644-0.991-3.955-1.638-6.573c-2.509-10.266-6.216-25.467-6.216-25.467
			c-1.548-8.011-23.228-27.016-45.916-4.986C765.44,990.149,792.958,1020.203,803.828,1027.43z"/>
		<path fill="#322A28" d="M833.494,969.84c0,0-0.805,9.456-14.416,15.068c-13.61,5.612-26.728,14.609-25.897,28.684
			c0.832,14.075-4.391,21.708-4.391,21.708s-1.033-17.54-9.028-32.778c-3.101-5.911-5.436-18.153,0.791-28.263
			C790.378,958.307,814.126,947.067,833.494,969.84z"/>
		<path fill="#FDAE97" d="M795.613,1010.708c2.626,4.372,3.275,7.415-0.156,9.477c-3.432,2.062-9.022,1.228-11.648-3.144
			c-2.625-4.371-1.972-9.586,1.46-11.647C788.701,1003.332,792.988,1006.337,795.613,1010.708z"/>
		
			<path fill="none" stroke="#E89780" stroke-width="0.6333" stroke-linecap="round" stroke-linejoin="round" stroke-miterlimit="10" d="
			M787.974,1013.449c2.852-1.203,5.207,0.143,5.207,0.143c-1.659-4.914-7.542-3.281-7.542-3.281"/>
		
			<ellipse transform="matrix(-0.9765 0.2154 -0.2154 -0.9765 1832.427 1797.1174)" fill="#322A28" cx="818.297" cy="998.399" rx="2.308" ry="3.567"/>
		
			<ellipse transform="matrix(-0.9765 0.2154 -0.2154 -0.9765 1863.1622 1783.5298)" fill="#322A28" cx="834.405" cy="993.28" rx="2.308" ry="3.568"/>
		<path fill="none" stroke="#2C3447" stroke-width="0.9402" stroke-miterlimit="10" d="M810.808,995.997
			c0,0,2.805-5.646,7.689-4.904"/>
		<path fill="none" stroke="#FFFFFF" stroke-width="1.2666" stroke-miterlimit="10" d="M865.719,1158.662
			c0,0,8.198-17.942,7.942-31.433c-0.256-13.49-9.481-25.25-9.481-25.25"/>
		<path fill="none" stroke="#2C3447" stroke-width="0.9402" stroke-miterlimit="10" d="M831.099,987.411c0,0,2.69-1.142,6.347,1.237
			"/>
		<path fill="#088CFF" d="M755.859,1664.929h-72.264l22.934-229.906l0.066-0.799c1.531-22.335,20.171-39.977,42.906-39.977
			c23.766,0,43.005,19.239,43.005,43.005c0,1.332-0.066,2.63-0.2,3.895L755.859,1664.929z"/>
		<path fill="none" stroke="#2C3447" stroke-width="0.9402" stroke-miterlimit="10" d="M826.4,995.335c0,0,2.323,9.484,8.175,9.417
			c0,0-1.423,2.012-3.506,3.17"/>
		<path fill="#088CFF" d="M749.134,1236.801c-22.146,18.34-37.264,57.474-37.901,109.706c-0.637,52.231-4.521,85.769-4.521,85.769
			c-2.488,23.672,14.685,44.879,38.357,47.367c23.672,2.487,44.879-14.686,47.367-38.357l33.446-204.484H749.134z"/>
		<g>
			<path fill="#586773" d="M1108.013,866.11c0,0-70.32,67.846-126.753,131.033c-56.434,63.187-374.595,430.798-402.91,463.498
				c-27.43,31.677-51.113,57.273-51.223,84.764c-0.006,1.504,1.355,2.639,2.849,2.457c8.701-1.057,36.726-7.459,68.945-46.165
				c38.926-46.763,328.036-348.31,356.459-380.553c28.423-32.244,170.787-196.808,187.023-225.677L1108.013,866.11z"/>
			<path fill="#403534" d="M1381.39,599.213c0,0-3.718,30.685-32.514,65.028c-12.273,14.634-29.032,29.917-52.045,43.784
				l-13.985-12.273c0,0,15.401-36.999,42.545-65.263C1340.556,614.673,1359.439,601.574,1381.39,599.213z"/>
			<path fill="#93ACBF" d="M1296.853,708.03l-152.768,191.905c-0.698,0.877-1.987,0.993-2.83,0.254l-35.716-31.297
				c-0.866-0.759-0.896-2.096-0.065-2.894l177.393-170.222L1296.853,708.03z"/>
		</g>
		<path fill="none" stroke="#2C3447" stroke-width="0.9402" stroke-miterlimit="10" d="M833.768,1015.653
			c0,0-5.638,3.992-11.621-1.875"/>
		
			<ellipse transform="matrix(-0.9967 -0.0816 0.0816 -0.9967 1544.6757 2078.5452)" fill="#E89780" cx="814.787" cy="1007.726" rx="7.289" ry="3.718"/>
		<path fill="#E89780" d="M837.701,1003.914c0.589,1.125,2.209,1.521,4.191,1.201c-0.409-1.644-0.991-3.955-1.638-6.573
			C838.042,1000.352,836.925,1002.508,837.701,1003.914z"/>
		<path fill="#FDAE97" d="M914.301,1157.005c-1.344-2.461-4.745,0.349-4.745,0.349s1.189-4.393-1.484-5.941
			c-2.673-1.548-12.341,4.631-17.189,6.732c-4.848,2.102-16.538,6.103-18.118,5.172c-1.581-0.932,12.322-9.633,11.158-12.805
			s-23.128,5.075-30.751,9.01c-3.278,1.691-7.426,3.23-11.091,4.438l-112.486,11.48c-12.649,3.019-20.2,17.213-16.781,31.543
			c3.42,14.33,16.567,23.585,29.216,20.566l105.65-35.42c4.799-0.277,27.648-1.656,37.084-3.285
			c10.569-1.824,23.559-8.712,23.265-11.134s-2.467-1.913-2.467-1.913s9.196-6.261,8.388-9.343
			c-0.808-3.082-2.541-1.325-2.541-1.325S915.645,1159.465,914.301,1157.005z"/>
		
			<ellipse transform="matrix(0.6018 -0.7986 0.7986 0.6018 -466.5115 1004.5672)" fill="#322A28" cx="774.165" cy="970.12" rx="22.227" ry="14.862"/>
		<circle fill="none" stroke="#FFFFFF" stroke-width="0.8322" stroke-miterlimit="10" cx="793.802" cy="1020.939" r="3.278"/>
		<polygon fill="#FDAE97" points="763.647,1706.104 772.135,1713.76 692.915,1713.76 693.281,1706.104 694.479,1681.904 
			695.312,1664.929 740.747,1664.929 736.819,1681.904 		"/>
		<path fill="#088CFC" d="M692.921,1713.75h79.191l-0.715-3.572c-0.22-1.044-0.494-2.089-0.824-3.133
			c-2.034-6.869-6.1-12.805-11.432-17.146c-6.099-5-13.903-7.969-22.312-7.969H694.46l-1.154,24.182l-0.055,0.934L692.921,1713.75z"
			/>
		
			<line fill="none" stroke="#FFFFFF" stroke-width="0.8322" stroke-miterlimit="10" x1="726.359" y1="1691.297" x2="740.665" y2="1691.297"/>
		
			<line fill="none" stroke="#FFFFFF" stroke-width="0.8322" stroke-miterlimit="10" x1="730.903" y1="1696.851" x2="745.208" y2="1696.851"/>
		<circle fill="#FFFFFF" cx="709.865" cy="1695" r="6.059"/>
		<path fill="#0775EF" d="M954.954,1514.496h-72.264l57.248-229.906l0.066-0.799c1.531-22.335,20.171-39.977,42.906-39.977
			c23.766,0,43.005,19.239,43.005,43.006c0,1.331-0.066,2.63-0.2,3.895L954.954,1514.496z"/>
		<polygon fill="#FDAE97" points="962.976,1555.672 971.464,1563.327 886.045,1563.327 887.992,1555.672 893.808,1531.473 
			899.102,1514.496 944.537,1514.496 936.147,1531.473 		"/>
		<path fill="#088CFF" d="M886.036,1563.336h85.401c-0.11-2.309-0.44-4.562-0.989-6.705c-3.792-14.563-16.981-25.17-32.534-25.17
			h-44.13l-5.77,24.236l-0.22,0.934L886.036,1563.336z"/>
		
			<line fill="none" stroke="#FFFFFF" stroke-width="0.8322" stroke-miterlimit="10" x1="925.688" y1="1540.865" x2="939.993" y2="1540.865"/>
		
			<line fill="none" stroke="#FFFFFF" stroke-width="0.8322" stroke-miterlimit="10" x1="930.231" y1="1546.419" x2="944.537" y2="1546.419"/>
		<circle fill="#FFFFFF" cx="909.194" cy="1544.567" r="6.059"/>
		
			<line fill="none" stroke="#FFFFFF" stroke-width="1.2666" stroke-miterlimit="10" x1="765.787" y1="1174.44" x2="774.509" y2="1127.313"/>
		<path fill="#FFFFFF" d="M692.921,1713.75h79.191l-0.715-3.572c-0.22-1.044-0.494-2.089-0.824-3.133h-77.323L692.921,1713.75z"/>
		<path fill="#FFFFFF" d="M886.036,1563.336h85.401c-0.11-2.309-0.44-4.562-0.989-6.705h-82.653L886.036,1563.336z"/>
		<path fill="#BBDBF3" d="M1348.876,664.241c1.77-12.274,9.972-27.911,6.373-33.694c-5.901-9.5-23.604,16.994-29.858,0v-0.059
			c15.165-15.815,34.048-28.915,55.999-31.275C1381.39,599.213,1377.672,629.897,1348.876,664.241z"/>
	</g>
	<g>
		<polygon fill="#93ACBF" points="3565.974,846.534 3504.74,756.334 3475.871,899.59 3520.922,1015.52 		"/>
		<path fill="#93ACBF" d="M2691.129,2002.623h647.357c14.532,0,28.435-11.719,31.052-26.175l199.999-1104.586
			c2.645-14.607,0.555-29.503-14.056-29.503l-641.423-90.924c-14.61,0-28.563,11.843-31.163,26.451l-213.418,1198.563
			C2666.903,1990.904,2676.597,2002.623,2691.129,2002.623z"/>
		<path fill="#BBDBF3" d="M2616.566,2002.623h647.357c14.532,0,28.435-11.719,31.053-26.175L3511.99,777.885
			c2.645-14.608-7.055-26.451-21.664-26.451h-650.83c-14.609,0-28.562,11.843-31.163,26.451l-213.418,1198.563
			C2592.341,1990.904,2602.035,2002.623,2616.566,2002.623z"/>
		<polygon fill="#586773" points="2851.249,797.949 2655.42,1896.507 3263.171,1896.507 3341.5,1463.422 3095.949,815.175 
			3202.332,815.175 3375.823,1273.649 3461.859,797.949 		"/>
		<path fill="#BBDBF3" d="M3067.011,791.386c-0.411,2.297-0.476,4.485-0.191,6.563c0.389,3.938,1.896,7.438,4.185,10.227
			c3.547,4.32,9.028,7,15.537,7h133.84c10.775,0,21.283-7.328,25.908-17.226c1.03-2.078,1.752-4.266,2.165-6.563
			c1.182-6.563-0.437-12.471-3.98-16.792c-3.545-4.322-8.97-7.002-15.535-7.002h-133.867
			C3081.997,767.593,3069.354,778.314,3067.011,791.386z"/>
		<polygon fill="#93ACBF" points="3095.949,815.175 3341.5,1463.422 3375.823,1273.649 3202.332,815.175 		"/>
		<polygon fill="#93ACBF" points="2851.249,797.949 2850.488,802.215 3264.16,1891.035 3330.891,1522.082 3056.481,797.949 		"/>
		<polygon fill="#93ACBF" points="2759.597,1312.097 2746.013,1388.301 2939.777,1896.507 2982.353,1896.507 		"/>
		<polygon fill="#93ACBF" points="2741.823,1411.805 2715.355,1560.285 2843.685,1896.507 2926.656,1896.507 		"/>
		<path fill="#BBDBF3" d="M2870.235,1979.768h148.229c16.951,0,33.304-13.798,36.34-30.663l0,0
			c3.036-16.868-8.352-30.671-25.307-30.671h-148.269c-16.955,0-33.3,13.803-36.321,30.671l0,0
			C2841.887,1965.97,2853.284,1979.768,2870.235,1979.768z"/>
	</g>
	<path fill="#0775EF" d="M3688.743,2072.544H227.742c-16.774,0-30.373-13.599-30.373-30.372v-9.177
		c0-16.774,13.598-30.372,30.373-30.372h3461.001c16.774,0,30.372,13.598,30.372,30.372v9.177
		C3719.115,2058.945,3705.518,2072.544,3688.743,2072.544z"/>
	<path fill="#FFFFFF" d="M440.822,1424.376c-11.49-6.923-26.424-3.018-33.045,8.644l-11.34,19.973l-4.589-2.766
		c-3.552-2.141-7.639-2.646-11.384-1.717c-3.746,0.929-7.123,3.285-9.264,6.837c-4.294,7.108-1.998,16.369,5.121,20.647l5.252,3.164
		l-65.036,114.465c-2.113,3.72-1.122,8.359,2.164,10.942l-6.558,17.919l13.635,8.229l12.779-14.171
		c3.829,1.682,8.385,0.407,10.682-3.213l70.818-110.969l5.252,3.165c3.556,2.154,7.652,2.642,11.397,1.713
		c3.732-0.926,7.112-3.268,9.263-6.837c4.291-7.122,1.998-16.369-5.124-20.661l-4.589-2.766l12.347-19.354
		C455.819,1446.318,452.295,1431.289,440.822,1424.376z"/>
	<g>
		<path fill="#F9E181" d="M710.812,415.306c1.069,71.692-33.118,135.653-86.49,175.473c-31.546,23.57-49.215,61.433-48.627,100.841
			l0.526,35.281l-151.295,2.256l-0.526-35.281c-0.587-39.408-19.329-76.728-51.612-99.297c-11.771-8.229-22.675-17.65-32.61-28.02
			l-0.001-0.049c-12.583-13.23-23.469-28.058-32.409-44.193c-18.539-33.538-28.411-72.661-26.476-114.318
			c5.05-106.334,89.015-193.99,195.036-203.484c2.356-0.183,4.762-0.366,7.119-0.5c77.786-4.453,147.49,32.647,188.62,91.406
			C695.917,329.42,710.146,370.689,710.812,415.306z"/>
		<path fill="#BBDBF3" d="M577.631,758.925c0.053,3.538-0.141,7.03-0.581,10.478c-2.082,15.267-9.005,28.984-19.267,39.508
			c-12.488,12.916-29.961,21.04-49.372,21.329l-11.744,0.175c-35.232,0.525-64.807-24.984-70.372-58.764
			c-0.543-3.433-0.841-6.917-0.894-10.456c-0.053-3.538,0.142-7.03,0.583-10.428c2.081-15.267,9.004-28.984,19.265-39.557
			c12.488-12.916,29.963-21.04,49.323-21.329l11.744-0.175c35.282-0.526,64.857,25.033,70.423,58.813
			C577.281,751.902,577.579,755.387,577.631,758.925z"/>
		<path fill="#A7ADC7" d="M594.056,716.658c-1.838,1.944-4.474,3.163-7.325,3.206c3.342-0.05,6.363,1.527,8.317,3.956
			c1.401,1.749,2.271,3.996,2.306,6.355c0.042,2.85-1.098,5.472-2.986,7.417c-1.839,1.895-4.475,3.114-7.325,3.157
			c3.047-0.045,5.867,1.239,7.767,3.374c1.746,1.792,2.815,4.233,2.856,6.936c0.043,2.899-1.098,5.472-2.986,7.417
			c-1.839,1.895-4.475,3.114-7.325,3.156l-9.778,0.146c-0.061,2.557-0.218,5.114-0.525,7.626
			c-2.082,15.267-9.005,28.984-19.267,39.508c-12.488,12.916-29.961,21.04-49.372,21.329l-11.744,0.175
			c-26.191,0.391-49.253-13.617-61.608-34.665c17.873,2.191,41.635,0.412,63.355-16.279c30.565-23.458,25.382-74.347,20.325-100.37
			l67.368-1.004c3.39-0.05,6.461,1.526,8.417,4.052c1.351,1.7,2.17,3.851,2.206,6.209c0.043,2.899-1.097,5.521-2.986,7.417
			c-1.838,1.944-4.474,3.163-7.325,3.205c3.146-0.047,6.016,1.336,7.966,3.519c1.648,1.843,2.618,4.188,2.656,6.743
			C597.084,712.091,595.945,714.762,594.056,716.658z"/>
		<path fill="none" stroke="#FFFFFF" stroke-width="5.4724" stroke-miterlimit="10" d="M480.607,695.688
			c0,0,4.264-280.693-68.602-256.18c-72.865,24.514,167.75,105.423,190.825,15.887s-92.682-5.399-91.804,65.107
			c0.879,70.506,2.678,179.562,2.678,179.562"/>
		<path fill="#93ACBF" d="M594.056,716.658c-1.838,1.944-4.474,3.163-7.325,3.206c3.342-0.05,6.363,1.527,8.317,3.956
			c1.401,1.749,2.271,3.996,2.306,6.355c0.042,2.85-1.098,5.472-2.986,7.417c-1.839,1.895-4.475,3.114-7.325,3.157
			c3.047-0.045,5.867,1.239,7.767,3.374c1.746,1.792,2.815,4.233,2.856,6.936c0.043,2.899-1.098,5.472-2.986,7.417
			c-1.839,1.895-4.475,3.114-7.325,3.156l-9.778,0.146c-0.061,2.557-0.218,5.114-0.525,7.626
			c-2.082,15.267-9.005,28.984-19.267,39.508c-12.488,12.916-29.961,21.04-49.372,21.329l-11.744,0.175
			c-26.191,0.391-49.253-13.617-61.608-34.665c17.873,2.191,41.635,0.412,63.355-16.279c30.565-23.458,25.382-74.347,20.325-100.37
			l67.368-1.004c3.39-0.05,6.461,1.526,8.417,4.052c1.351,1.7,2.17,3.851,2.206,6.209c0.043,2.899-1.097,5.521-2.986,7.417
			c-1.838,1.944-4.474,3.163-7.325,3.205c3.146-0.047,6.016,1.336,7.966,3.519c1.648,1.843,2.618,4.188,2.656,6.743
			C597.084,712.091,595.945,714.762,594.056,716.658z"/>
		<path fill="#93ACBF" d="M577.631,758.925c0.053,3.538-0.141,7.03-0.581,10.478l-150.754,2.248
			c-0.543-3.433-0.841-6.917-0.894-10.456c-0.053-3.538,0.142-7.03,0.583-10.428l150.754-2.248
			C577.281,751.902,577.579,755.387,577.631,758.925z"/>
		<path fill="#BBDBF3" d="M597.666,751.057c0.043,2.899-1.098,5.472-2.986,7.417c-1.839,1.895-4.475,3.114-7.325,3.156
			l-172.571,2.573c-5.75,0.086-10.487-4.513-10.573-10.262c-0.041-2.703,0.955-5.175,2.599-7.018
			c0.096-0.149,0.193-0.249,0.338-0.398c1.838-1.944,4.474-3.163,7.325-3.206l172.571-2.573c3.047-0.045,5.867,1.239,7.767,3.374
			C596.556,745.913,597.625,748.354,597.666,751.057z"/>
		<path fill="#BBDBF3" d="M596.73,688.357c0.043,2.899-1.097,5.521-2.986,7.417c-1.838,1.944-4.474,3.163-7.325,3.205
			l-172.571,2.574c-5.75,0.085-10.488-4.562-10.574-10.311c-0.035-2.358,0.718-4.532,1.972-6.271
			c0.337-0.398,0.626-0.796,0.966-1.145c1.839-1.896,4.475-3.114,7.325-3.157l172.571-2.573c3.39-0.05,6.461,1.526,8.417,4.052
			C595.876,683.849,596.695,685.999,596.73,688.357z"/>
		<path fill="#BBDBF3" d="M597.042,709.241c0.042,2.85-1.097,5.521-2.986,7.417c-1.838,1.944-4.474,3.163-7.325,3.206
			l-172.571,2.573c-5.75,0.086-10.488-4.562-10.574-10.311c-0.038-2.556,0.861-4.928,2.405-6.819
			c0.194-0.199,0.338-0.398,0.532-0.598c1.839-1.895,4.475-3.114,7.325-3.156l172.571-2.574c3.146-0.047,6.016,1.336,7.966,3.519
			C596.034,704.341,597.004,706.686,597.042,709.241z"/>
		<path fill="#93ACBF" d="M594.525,682.148c-0.29,0.397-0.627,0.796-0.967,1.145c-1.838,1.944-4.474,3.163-7.325,3.206
			l-172.571,2.573c-3.391,0.051-6.462-1.575-8.416-4.102c0.337-0.398,0.626-0.796,0.966-1.145c1.839-1.896,4.475-3.114,7.325-3.157
			l172.571-2.573C589.499,678.046,592.57,679.622,594.525,682.148z"/>
		<path fill="#93ACBF" d="M594.386,702.498c-0.145,0.198-0.339,0.398-0.532,0.598c-1.838,1.944-4.474,3.163-7.325,3.206
			l-172.571,2.573c-3.146,0.047-6.016-1.335-7.967-3.567c0.194-0.199,0.338-0.398,0.532-0.598c1.839-1.895,4.475-3.114,7.325-3.156
			l172.571-2.574C589.565,698.933,592.436,700.315,594.386,702.498z"/>
		<path fill="#BBDBF3" d="M597.354,730.174c0.042,2.85-1.098,5.472-2.986,7.417c-1.839,1.895-4.475,3.114-7.325,3.157
			l-172.571,2.573c-5.75,0.086-10.488-4.562-10.573-10.262c-0.035-2.358,0.767-4.632,2.068-6.42
			c0.289-0.348,0.579-0.697,0.869-0.996c1.838-1.944,4.475-3.163,7.325-3.206l172.571-2.573c3.342-0.05,6.363,1.527,8.317,3.956
			C596.449,725.567,597.319,727.815,597.354,730.174z"/>
		<path fill="#93ACBF" d="M595.048,723.819c-0.241,0.348-0.531,0.696-0.87,1.045c-1.839,1.895-4.475,3.114-7.325,3.156
			l-172.571,2.574c-3.341,0.049-6.362-1.479-8.315-3.956c0.289-0.348,0.579-0.697,0.869-0.996c1.838-1.944,4.475-3.163,7.325-3.206
			l172.571-2.573C590.073,719.813,593.094,721.391,595.048,723.819z"/>
		<path fill="#93ACBF" d="M594.81,744.121c-0.146,0.149-0.242,0.249-0.339,0.349c-1.838,1.944-4.474,3.163-7.325,3.206
			l-172.571,2.573c-3.047,0.045-5.818-1.24-7.767-3.324c0.096-0.149,0.193-0.249,0.338-0.398c1.838-1.944,4.474-3.163,7.325-3.206
			l172.571-2.573C590.09,740.702,592.909,741.986,594.81,744.121z"/>
		<path fill="#F9ECB8" d="M476.326,204.515c2.356-0.183,4.762-0.366,7.119-0.5c-25.143,14.579-53.454,34.268-84.463,60.877
			c-96.084,82.528-96.709,202.067-91.215,257.425c-18.539-33.538-28.411-72.661-26.476-114.318
			C286.341,301.664,370.306,214.008,476.326,204.515z"/>
	</g>
	<g>
		<polygon fill="#FDAE97" points="2359.769,1383.774 2414.652,1382.842 2411.777,1325.214 2410.404,1297.655 2410.326,1296.283 
			2367.384,1278.23 2365.985,1297.707 2364.949,1311.9 		"/>
		<path fill="#B86B76" d="M2467.102,1562.158l23.079,191.05c0.725,4.829,0.702,9.85-0.283,14.917
			c-4.637,23.855-27.734,39.435-51.589,34.798c-23.855-4.638-32.984-23.057-37.27-50.448c-8.225-52.58-36.95-210.34-36.95-210.34
			L2467.102,1562.158z"/>
		<polygon fill="#B86B76" points="2317.453,1552.543 2402.231,1558.23 2401.81,1652.155 2391.747,1667.036 2382.419,1757.583 
			2296.604,1750.724 		"/>
		<path fill="#FDAE97" d="M2386.498,1359.674c-20.137,0.443-29.938-10.604-32.049-15.475l8.756-2.365l49.321-1.566l5.982,1.915
			C2415.983,1346.884,2407.071,1359.221,2386.498,1359.674z"/>
		<path fill="#FFFFFF" d="M2315.033,1484.963l0.866,82.353h151.824l-0.7-207.62l-53.196-19.222
			c-0.597,1.093-1.242,2.235-2.037,3.427l-0.198,0.248c-2.881,3.676-8.395,7.153-23.842,7.501
			c-12.864,0.298-19.173-1.49-22.748-3.825l-0.05-0.05c-1.938-1.291-3.478-3.841-4.371-5.231l-49.819,12.086l3.378,104.804
			L2315.033,1484.963z"/>
		<path fill="#F74242" d="M2354.449,1344.199c0,0,4.309,76.833,3.688,121.244c-0.621,44.41-3.688,156.644-3.688,156.644
			s-28.125,0.595-53.996-4.645c0,0-0.39-50.845,6.743-85.909c7.133-35.065,3.565-176.904,3.565-176.904L2354.449,1344.199z"/>
		<path fill="#F74242" d="M2515.311,1527.372l-0.321,0.126c-14.143,5.547-30.252-1.486-35.799-15.628l-45.195-115.231
			c-5.547-14.143,1.486-30.252,15.628-35.799l0.322-0.126c14.143-5.547,30.252,1.485,35.799,15.628l45.195,115.231
			C2536.486,1505.716,2529.453,1521.825,2515.311,1527.372z"/>
		<path fill="#B86B76" d="M2506.252,1947.125l-79.744-0.056l-24.037-185.573c-2.51-24.183,15.021-45.838,39.174-48.384
			c24.184-2.51,45.805,15.02,48.351,39.171c0.229,2.1,0.256,4.15,0.179,6.229l13.882,162.88L2506.252,1947.125L2506.252,1947.125z"
			/>
		<path fill="#B86B76" d="M2382.726,1754.246l-20.479,192.879h-78.343l12.562-193.936c-0.103-2.044,0.477-4.326,0.647-6.438
			c2.146-24.222,21.394-42.312,45.616-40.2C2366.918,1708.697,2384.837,1730.023,2382.726,1754.246z"/>
		<path fill="#322A28" d="M2356.608,1265.404c0,0-7.297-18.218,1.646-16.549C2367.195,1250.523,2356.608,1265.404,2356.608,1265.404
			z"/>
		<path fill="#F74242" d="M2418.509,1342.183c0,0-20.762,107.636-21.459,161.133c-0.698,53.497-0.698,53.497-0.698,53.497
			l2.378,65.274c0,0,57.844,7.171,78.066-1.078c0,0,1.412-77.483-3.963-104.918c-5.374-27.435-5.81-156.396-5.81-156.396
			L2418.509,1342.183z"/>
		<polygon fill="#EA9D85" points="2363.436,1332.903 2394.286,1310.408 2364.949,1311.9 		"/>
		
			<path fill="none" stroke="#FFFFFF" stroke-width="1.4695" stroke-linecap="round" stroke-linejoin="round" stroke-miterlimit="10" d="
			M2407.844,1606.286c0,0,42.104,6.973,61.721,0"/>
		<path fill="#FDAE97" d="M2357.228,1251.08c0,0-1.746,18.361-2.984,31.387l-1.024,10.766c-0.809,8.505,0.377,21.35,9.672,25.179
			c9.265,3.826,22.794,1.091,32.904-7.987c10.114-9.109,34.727-52.119,8.027-71.412
			C2377.091,1219.716,2358.305,1246.749,2357.228,1251.08z"/>
		
			<path fill="none" stroke="#FFFFFF" stroke-width="1.4695" stroke-linecap="round" stroke-linejoin="round" stroke-miterlimit="10" d="
			M2344.439,1365.411c0,0,4.178,67.168,5.656,96.889c1.478,29.722-5.656,134.339-5.656,134.339"/>
		<path fill="#322A28" d="M2411.294,1312.912c0,0-6.958-11.633-6.487-17.971c0.47-6.338-6.795-13.469-5.623-23.202
			s1.641-13.834-3.398-13.366c-5.038,0.469-40.658,8.437-41.596-8.436c-0.938-16.873,41.148-33.16,58.128-4.57
			c0,0,11.289-0.517,7.84,23.418C2416.709,1292.719,2411.688,1296.795,2411.294,1312.912z"/>
		
			<path fill="none" stroke="#FFFFFF" stroke-width="1.4695" stroke-linecap="round" stroke-linejoin="round" stroke-miterlimit="10" d="
			M2427.387,1352.73c0,0-7.908,65.781-12.734,98.276c-4.827,32.494-5.662,112.589-6.809,142.263"/>
		<g>
			<path fill="#FDAE97" d="M2400.599,1290.314c-3.815,4.885-5.051,8.461-1.216,11.455c3.835,2.996,10.702,2.818,14.518-2.066
				c3.814-4.885,3.799-11.272-0.036-14.268S2404.413,1285.431,2400.599,1290.314z"/>
		</g>
		
			<ellipse transform="matrix(0.9955 0.0947 -0.0947 0.9955 131.5603 -219.3513)" fill="#322A28" cx="2378.072" cy="1277.164" rx="2.321" ry="3.588"/>
		
			<ellipse transform="matrix(-0.9955 -0.0947 0.0947 -0.9955 4586.3584 2768.2065)" fill="#322A28" cx="2358.83" cy="1275.334" rx="2.321" ry="3.588"/>
		
			<ellipse transform="matrix(-0.974 0.2264 -0.2264 -0.974 4994.2441 2004.3003)" fill="#EA9D85" cx="2382.205" cy="1288.498" rx="6.913" ry="3.477"/>
		<path fill="#EA9D85" d="M2354.243,1282.467l-0.666,6.999c2.917,0.626,5.412,0.039,5.967-1.46
			C2360.156,1286.228,2357.794,1283.754,2354.243,1282.467z"/>
		
			<path fill="none" stroke="#EA9D85" stroke-width="1.4317" stroke-linecap="round" stroke-linejoin="round" stroke-miterlimit="10" d="
			M2409.648,1295.564c-3.164-0.915-5.871-0.559-5.871-0.559c3.382-5.101,7.517-4.076,7.517-4.076"/>
		<path fill="none" stroke="#332B27" stroke-width="0.9158" stroke-miterlimit="10" d="M2370.438,1277.816l-5.552,12.185
			c-0.563,1.234-0.213,2.693,0.85,3.537l1.645,1.308l1.685,1.339"/>
		<path fill="none" stroke="#332B27" stroke-width="0.9158" stroke-miterlimit="10" d="M2383.667,1273.646
			c0,0-3.827-4.577-8.892-3.7"/>
		<path fill="none" stroke="#332B27" stroke-width="0.9158" stroke-miterlimit="10" d="M2354.957,1268.785
			c0,0,3.677-2.888,8.11-0.288"/>
		<polygon fill="#FDAE97" points="2350.943,1977.268 2353.043,1947.125 2294.347,1947.125 2292.054,1977.268 		"/>
		<path fill="#F74242" d="M2276.476,1527.438l-0.334-0.091c-14.651-4.015-23.354-19.286-19.34-33.938l32.709-119.378
			c4.015-14.651,19.286-23.354,33.938-19.34l0.333,0.091c14.651,4.015,23.354,19.287,19.34,33.938l-32.708,119.378
			C2306.398,1522.75,2291.127,1531.453,2276.476,1527.438z"/>
		<polygon fill="#EA9D85" points="2293.308,1960.78 2353.043,1947.125 2294.347,1947.125 		"/>
		<polygon fill="#FDAE97" points="2438.067,1977.268 2435.816,1947.076 2495.938,1947.125 2496.956,1977.268 		"/>
		<polygon fill="#EA9D85" points="2437.071,1963.916 2495.938,1947.125 2435.816,1947.076 		"/>
		<path fill="#322A28" d="M2263.129,2002.623h86.674l0.148-3.527l1.064-23.359h-58.979c-7.302,0-14.057,4.287-19.222,8.757
			c-4.272,3.825-7.451,8.842-8.941,14.603C2263.526,2000.238,2263.277,2001.431,2263.129,2002.623z"/>
		<path fill="#FFF1F0" d="M2263.129,2002.623h86.674l0.148-3.527h-86.078C2263.526,2000.238,2263.277,2001.431,2263.129,2002.623z"
			/>
		<g>
			
				<path fill="none" stroke="#FFF1F0" stroke-width="1.134" stroke-linecap="round" stroke-linejoin="round" stroke-miterlimit="10" d="
				M2290.262,1980.542c0,0,7.491-13.148,12.537-7.95C2307.844,1977.79,2290.262,1980.542,2290.262,1980.542"/>
			
				<path fill="none" stroke="#FFF1F0" stroke-width="1.134" stroke-linecap="round" stroke-linejoin="round" stroke-miterlimit="10" d="
				M2292.898,1983.16l-2.637-2.618c0,0-7.492-13.148-12.537-7.95c-5.046,5.198,12.537,7.95,12.537,7.95"/>
			
				<line fill="none" stroke="#FFF1F0" stroke-width="1.134" stroke-linecap="round" stroke-linejoin="round" stroke-miterlimit="10" x1="2288.249" y1="1983.16" x2="2290.262" y2="1980.542"/>
		</g>
		<path fill="#322A28" d="M2525.432,2002.623h-86.674l-0.149-3.527l-1.063-23.359h58.979c7.302,0,14.057,4.287,19.223,8.757
			c4.271,3.825,7.45,8.842,8.94,14.603C2525.034,2000.238,2525.283,2001.431,2525.432,2002.623z"/>
		<path fill="#FFF1F0" d="M2525.432,2002.623h-86.674l-0.149-3.527h86.078C2525.034,2000.238,2525.283,2001.431,2525.432,2002.623z"
			/>
		<g>
			
				<path fill="none" stroke="#FFF1F0" stroke-width="1.134" stroke-linecap="round" stroke-linejoin="round" stroke-miterlimit="10" d="
				M2498.299,1981.338c0,0-7.492-13.148-12.537-7.95C2480.716,1978.586,2498.299,1981.338,2498.299,1981.338"/>
			
				<path fill="none" stroke="#FFF1F0" stroke-width="1.134" stroke-linecap="round" stroke-linejoin="round" stroke-miterlimit="10" d="
				M2495.661,1983.956l2.638-2.618c0,0,7.491-13.148,12.537-7.95c5.045,5.198-12.537,7.95-12.537,7.95"/>
			
				<line fill="none" stroke="#FFF1F0" stroke-width="1.134" stroke-linecap="round" stroke-linejoin="round" stroke-miterlimit="10" x1="2500.312" y1="1983.956" x2="2498.299" y2="1981.338"/>
		</g>
		
			<polyline fill="none" stroke="#FFFFFF" stroke-width="0.745" stroke-linecap="round" stroke-linejoin="round" stroke-miterlimit="10" points="
			2389.798,1685.955 2382.895,1662.904 2376.278,1662.904 2365.745,1634.372 		"/>
		
			<line fill="none" stroke="#FFFFFF" stroke-width="0.745" stroke-linecap="round" stroke-linejoin="round" stroke-miterlimit="10" x1="2498.299" y1="1925.338" x2="2430.436" y2="1925.338"/>
		
			<line fill="none" stroke="#FFFFFF" stroke-width="0.745" stroke-linecap="round" stroke-linejoin="round" stroke-miterlimit="10" x1="2359.917" y1="1925.338" x2="2292.054" y2="1925.338"/>
		<path fill="#FFFFFF" d="M2375.519,1299.703l-10.424,3.665c0,0,2.141,5.319,7.405,3.794S2375.519,1299.703,2375.519,1299.703z"/>
		
			<path fill="none" stroke="#FFFFFF" stroke-width="1.4695" stroke-linecap="round" stroke-linejoin="round" stroke-miterlimit="10" d="
			M2304.02,1602.384c0,0,20.21,6.737,40.42,1.388"/>
		<circle fill="#FFFFFF" cx="2340.675" cy="1486.869" r="3.765"/>
		<circle fill="#FFFFFF" cx="2340.675" cy="1521.453" r="3.765"/>
		<circle fill="#FFFFFF" cx="2335.92" cy="1580.728" r="3.765"/>
		<g>
			<polygon fill="#A5BBD6" points="2236.686,1560.157 2366.198,1560.157 2332.397,1463.174 2202.886,1463.174 			"/>
			<g>
				<polygon fill="#89A5C7" points="2364.786,1555.449 2407.137,1517.988 2281.869,1517.988 2235.273,1555.449 				"/>
				<polygon fill="#A5BBD6" points="2239.132,1558.011 2368.645,1558.011 2334.844,1461.027 2205.332,1461.027 				"/>
				<polygon fill="#89A5C7" points="2205.332,1461.027 2202.886,1463.174 2332.397,1463.174 2366.198,1560.157 2368.645,1558.011 
					2334.844,1461.027 				"/>
				<polygon fill="#586773" points="2407.137,1517.988 2408.549,1522.697 2366.198,1560.157 2364.558,1555.449 				"/>
			</g>
			<ellipse fill="#89A5C7" cx="2279.081" cy="1512.769" rx="14.359" ry="6.355"/>
		</g>
		<path fill="#FDAE97" d="M2340.372,1573.67c0.848,2.286,15.629,2.164,25.85-1.29c8.665-2.917,27.917-11.794,33.573-14.45
			l-10.688-34.735c-3.617,0.624-11.13,1.181-14.536,1.982c-9.065,2.135-26.413,9.555-25.922,12.939
			c0.46,3.356,16.307,0.176,15.349,1.757s-12.588,7.845-17.861,8.294c-5.301,0.48-16.783-0.364-18.399,2.272
			c-1.645,2.668,1.536,5.959,1.536,5.959s-4.358-0.829-4.378,1.986c-0.02,2.814,6.437,5.8,6.437,5.8s-2.347-0.734-1.602,2.366
			c0.775,3.129,11.886,4.264,11.886,4.264S2339.464,1571.386,2340.372,1573.67z"/>
		<path fill="#F74242" d="M2386.995,1516.331l109.226-43.891c13.13-4.824,28.361,3.367,33.872,18.246
			c5.478,14.878-0.787,31.026-13.918,35.886l-113.799,39.746L2386.995,1516.331z"/>
		<polyline fill="none" stroke="#332B27" stroke-width="1.2855" stroke-miterlimit="10" points="2398.606,1511.665 
			2468.438,1484.452 2447.63,1431.402 		"/>
		
			<line fill="none" stroke="#332B27" stroke-width="1.2855" stroke-miterlimit="10" x1="2473.424" y1="1541.504" x2="2412.325" y2="1562.844"/>
	</g>
	<g>
		<path fill="#F9E181" d="M3140.251,656.818L3140.251,656.818c11.757,7.216,27.28,3.501,34.496-8.255l54.245-88.372
			c7.217-11.756,3.502-27.28-8.255-34.497l0,0c-11.757-7.217-27.28-3.502-34.497,8.255l-54.244,88.372
			C3124.779,634.078,3128.494,649.601,3140.251,656.818z"/>
		<path fill="#332B27" d="M3268.744,422.22c0,0,22.15,15.779,24.26,49.097s40.531,38.195,40.531,38.195s-1.512,34.356-43.817,41.397
			c-42.307,7.041-41.821-63.11-41.821-63.11L3268.744,422.22z"/>
		<path fill="#332B27" d="M3227.77,422.22c0,0-14.03,3.138-15.758,28.315c-1.727,25.176,14.462,62.679,22.448,63.246
			C3242.446,514.348,3259.499,425.928,3227.77,422.22z"/>
		<path fill="#F9E181" d="M3270.313,511.739l43.894,20.672c0,0-9.76,112.203-10.769,124.563s2.774,31.027,2.774,31.027h-105.189
			c0,0,1.262-60.541-5.802-77.442c-4.785-11.45-8.072-18.415-5.297-31.532c2.774-13.117,12.107-32.793,8.828-55.496l26.991-10.847
			L3270.313,511.739z"/>
		<path fill="#B37661" d="M3225.733,461.658v51.038c0,0,0,0.624,0.124,1.622c0.524,4.166,3.219,14.867,17.088,14.717
			c12.672-0.149,21.527-9.454,25.294-14.343c1.372-1.746,2.07-2.943,2.07-2.943l-6.386-50.09H3225.733z"/>
		<polygon fill="#824C3A" points="3225.743,512.686 3248.436,483.714 3225.743,479.345 		"/>
		<path fill="#B37661" d="M3221.499,487.157c8.37,4.5,21.333,3.19,31.707-4.398c10.373-7.589,36.149-38.354,12.87-59.042
			c-23.312-20.685-43.539,2.965-44.953,6.935c0,0-2.858,14.378-4.848,24.517c-0.525,2.576-0.979,4.867-1.317,6.594
			c-0.042,0.281-0.116,0.534-0.16,0.785C3213.237,470.489,3213.13,482.688,3221.499,487.157z"/>
		<path fill="#F9E181" d="M3358.008,670.753L3358.008,670.753c12.447-5.947,17.766-20.997,11.818-33.444l-44.701-93.562
			c-5.947-12.447-20.997-17.766-33.444-11.818l0,0c-12.447,5.947-17.766,20.997-11.818,33.444l44.702,93.562
			C3330.512,671.382,3345.561,676.7,3358.008,670.753z"/>
		<polygon fill="#322A28" points="3276.031,1097.566 3257.5,1100.833 3254.202,1089.081 3246.219,1102.823 3202.499,1110.531 
			3230.078,1075.188 3269.227,1067.629 		"/>
		
			<line fill="none" stroke="#FFF1F0" stroke-width="1.4845" stroke-miterlimit="10" x1="3242.431" y1="1080.798" x2="3224.94" y2="1083.825"/>
		<path fill="#332B27" d="M3248.436,415.342c0,0-23.99-3.527-31.168,18.774l12.004,2.769c0,0,1.221-7.871,7.926-10.203
			c0,0-5.366,5.21-4.954,11.332l13.776,3.917c0,0,2.147-8.399,2.002-11.897c0,0,1.988,8.388,1.259,13.052l9.384,4.482
			c0,0-1.497,7.936,1.564,11.434c3.061,3.499,5.538,17.105,5.538,17.105s15.305-26.251,12.39-36.017
			S3269.729,414.497,3248.436,415.342z"/>
		
			<line fill="none" stroke="#FFF1F0" stroke-width="1.4845" stroke-miterlimit="10" x1="3239.266" y1="1087.567" x2="3221.776" y2="1090.594"/>
		<polygon fill="#322A28" points="3077.105,1063.807 3059.268,1057.815 3061.991,1045.916 3048.408,1054.167 3006.325,1040.029 
			3047.448,1022.178 3085.331,1034.663 		"/>
		
			<line fill="none" stroke="#FFF1F0" stroke-width="1.4845" stroke-miterlimit="10" x1="3055.614" y1="1033.012" x2="3038.807" y2="1027.306"/>
		
			<line fill="none" stroke="#FFF1F0" stroke-width="1.4845" stroke-miterlimit="10" x1="3049.598" y1="1037.443" x2="3032.79" y2="1031.738"/>
		<path fill="#B37661" d="M3260.574,465.966c-2.39,4.416-2.895,7.439,0.573,9.315c3.467,1.876,8.929,0.81,11.319-3.606
			c2.39-4.416,1.517-9.518-1.951-11.394C3267.049,458.405,3262.965,461.55,3260.574,465.966z"/>
		
			<path fill="none" stroke="#724638" stroke-width="0.6236" stroke-linecap="round" stroke-linejoin="round" stroke-miterlimit="10" d="
			M3270.369,465.134c0,0-5.859-1.346-7.274,3.562c0,0,2.257-1.428,5.116-0.37"/>
		
			<ellipse transform="matrix(0.9852 0.1714 -0.1714 0.9852 125.8394 -548.0994)" fill="#332B27" cx="3237.717" cy="454.859" rx="2.272" ry="3.513"/>
		
			<ellipse transform="matrix(0.9852 0.1714 -0.1714 0.9852 124.8606 -545.4093)" fill="#332B27" cx="3221.646" cy="450.534" rx="2.272" ry="3.513"/>
		<path fill="#FFFFFF" d="M3229.924,476.331c-2.393,0.375-4.637-1.26-5.013-3.653l8.666-1.36
			C3233.953,473.71,3232.317,475.955,3229.924,476.331z"/>
		<path fill="none" stroke="#332B27" stroke-width="0.9259" stroke-miterlimit="10" d="M3244.978,452.165
			c0,0-3.008-5.431-7.78-4.485"/>
		<path fill="none" stroke="#332B27" stroke-width="0.9259" stroke-miterlimit="10" d="M3224.639,444.615
			c0,0-2.697-1.004-6.19,1.498"/>
		<path fill="none" stroke="#332B27" stroke-width="0.9259" stroke-miterlimit="10" d="M3229.61,452.202
			c0,0-1.866,9.432-7.625,9.624c0,0,1.487,1.917,3.588,2.964"/>
		
			<ellipse transform="matrix(-0.9974 0.0722 -0.0722 -0.9974 6507.9624 694.2201)" fill="#A14C53" cx="3241.442" cy="464.655" rx="6.399" ry="3.452"/>
		<path fill="#A14C53" d="M3214.958,461.763c2.012,0.442,3.751,0.1,4.379-1.06c0.818-1.514-0.524-3.83-3.062-5.534
			C3215.75,457.745,3215.297,460.036,3214.958,461.763z"/>
		<path fill="#B37661" d="M3177.027,642.1c6.021-13.868,0.931-29.561-11.311-34.875l-111.603-31.729
			c-3.487-1.875-7.403-4.172-10.413-6.469c-6.997-5.339-27.715-17.602-29.458-14.605c-1.744,2.998,10.747,14.276,8.983,14.934
			s-12.859-5.477-17.382-8.468s-13.186-10.964-16.164-9.878c-2.978,1.086-2.563,5.737-2.563,5.737s-2.933-3.448-4.731-1.202
			s1.47,8.728,1.47,8.728s-1.437-2.085-2.805,0.884c-1.368,2.97,6.804,10.941,6.804,10.941s-2.105-0.903-2.836,1.491
			c-0.73,2.394,11.161,11.679,21.515,15.413c9.242,3.334,32.083,8.816,36.883,9.955l100.41,54.695
			C3156.068,662.966,3171.008,655.967,3177.027,642.1z"/>
		
			<line fill="none" stroke="#332B27" stroke-width="1.2822" stroke-miterlimit="10" x1="3305.483" y1="618.999" x2="3290.595" y2="587.837"/>
		<path fill="#088CFC" d="M3298.039,957.486c-1.918,19.57-65.681,17.942-112.656-17.219s-127.448-2.905-135.339-75.43
			c-7.89-72.525,151.104-55.855,155.133-48.948c4.029,6.907,75.979,107.636,77.706,109.363c1.727,1.727,13.526,19.714,13.526,19.714
			L3298.039,957.486z"/>
		<circle fill="none" stroke="#FFFFFF" stroke-width="1.056" stroke-miterlimit="10" cx="3263.432" cy="477.281" r="3.692"/>
		<path fill="none" stroke="#332B27" stroke-width="1.2822" stroke-miterlimit="10" d="M3195.584,611.53
			c0,0-7.906-16.63-6.622-25.267c1.284-8.637,8.32-31.975,9.249-39.143"/>
		<path fill="#B37661" d="M3421.819,556.623l5.333-11.117c0,0,8.438-10.229,11.074-14.265c1.485-2.275,6.116-7.983,7.214-8.629
			c0.869-0.512,3.161-0.004,3.251,0.979c0.118,1.277-2.666,7.94-3.706,10.572c-0.988,2.502-3.953,10.008-3.953,10.008
			s16.586-11.817,21.913-16.09c2.998-2.405,11.458-9.801,13.27-7.824c1.379,1.506-6.434,10.039-9.079,12.984
			c-2.433,2.707-9.651,10.898-9.651,10.898s11.733-9.615,15.645-12.82c2.847-2.332,10.455-10.351,12.543-8.195
			c2.068,2.134-6.001,9.489-8.418,12.244c-3.413,3.888-13.65,15.553-13.65,15.553s12.504-9.78,16.671-13.041
			c2.307-1.804,8.479-8.071,10.294-5.921c1.849,2.189-5.191,7.696-7.285,9.821c-3.589,3.64-14.354,14.559-14.354,14.559
			s9.229-6.822,12.306-9.096c1.313-0.972,5.322-3.749,6.237-2.431c1.244,1.794-3.888,5.944-5.454,7.522l-12.949,13.044
			c-1.048,1.056-2.213,1.981-3.468,2.756l-22.645,15.053L3421.819,556.623z"/>
		<path fill="#B37661" d="M3328.921,665.022c8.376,8.718,21.801,9.957,31.607,3.513l0,0l82.429-85.35l-21.138-26.563l-94.737,71.221
			C3317.246,637.308,3319.457,655.187,3328.921,665.022z"/>
		<path fill="#B37661" d="M3153.105,880.85c1.708,5.934,6.66,19.21,13.191,36.158c22.327,57.717,63.779,158.21,63.779,158.21
			l39.147-7.556c0,0-8.325-69.073-14.644-120.301c-1.408-11.1-2.689-21.345-3.757-29.883c-3.158-25.059-11.1-53.149-21.942-74.964
			c-14.13-28.389-33.17-46.105-52.979-32.53c-9.691,6.617-16.35,12.978-20.747,19.295
			C3143.629,845.844,3147.642,861.98,3153.105,880.85z"/>
		<path fill="#B37661" d="M3047.448,1022.196l37.823,12.423c0,0,27.62-79.19,44.568-128.241c1.836-5.293,3.543-10.246,5.08-14.686
			c6.745-19.637,11.484-42.604,12.85-63.736c2.476-37.823-5.849-69.712-32.829-65.785c-42.092,6.147-46.959,26.852-51.654,53.619
			c-0.128,0.811-0.299,1.75-0.427,2.817c-1.196,8.239-2.647,24.163-4.227,43.587
			C3053.553,924.223,3047.448,1022.196,3047.448,1022.196z"/>
		<path fill="#824C3A" d="M3153.105,880.85c1.708,5.934,6.66,19.21,13.191,36.158c28.305-1.152,71.506,21.217,88.283,30.353
			c-1.408-11.1-2.689-21.345-3.757-29.883c-3.158-25.059-11.1-53.149-21.942-74.964l-73.726-13.234
			C3143.629,845.844,3147.642,861.98,3153.105,880.85z"/>
		<path fill="#824C3A" d="M3058.633,862.194c33.127-2.903,63.053,33.341,71.207,44.184c1.836-5.293,3.543-10.246,5.08-14.686
			c6.745-19.637,11.484-42.604,12.85-63.736l-80.428-14.386c0,0-1.793,1.921-4.482,5.037
			C3061.663,826.846,3060.212,842.77,3058.633,862.194z"/>
		<path fill="#2EC6FC" d="M3201.022,688.002c0,0-108.833,63.117-130.823,93.926s-20.602,79.433-20.602,79.433
			s16.86-23.024,65.786,9.209s86.233,51.384,136.939,58.789c50.705,7.405,45.716,28.126,45.716,28.126s5.765-47.744-15.732-93.247
			c-21.496-45.503,34.738-102.457,38.379-129.797c3.64-27.341-14.474-46.439-14.474-46.439H3201.022z"/>
		<path fill="none" stroke="#FFFFFF" stroke-width="1.2822" stroke-miterlimit="10" d="M3147.77,854.446
			c0,0-6.484-40.86,9.633-73.669c16.117-32.809,59.531-60.438,68.331-84.037"/>
		<circle fill="#FFFFFF" cx="3235.396" cy="706.813" r="3.31"/>
		<circle fill="#FFFFFF" cx="3222.423" cy="722.066" r="3.31"/>
		<circle fill="#FFFFFF" cx="3205.171" cy="743.939" r="3.31"/>
		<circle fill="#FFFFFF" cx="3186.106" cy="765.152" r="3.31"/>
		<circle fill="#FFFFFF" cx="3166.824" cy="791.63" r="3.31"/>
		<circle fill="#FFFFFF" cx="3163.515" cy="818.214" r="3.31"/>
		<circle fill="#FFFFFF" cx="3163.515" cy="849.296" r="3.31"/>
		<circle fill="#FFFFFF" cx="3170.134" cy="875.773" r="3.31"/>
	</g>
</g>
<text transform="matrix(1 0 0 1 1030.896 974.9028)"><tspan x="0" y="0" font-family="'AdobeFanHeitiStd-Bold-B5pc-H'" font-size="424.7837">Front End</tspan><tspan x="-197.517" y="509.741" font-family="'AdobeFanHeitiStd-Bold-B5pc-H'" font-size="424.7837">DEVELOPER</tspan></text>
</svg>
