<?xml version="1.0" encoding="utf-8"?>
<!-- Generator: Adobe Illustrator 16.0.0, SVG Export Plug-In . SVG Version: 6.00 Build 0)  -->
<!DOCTYPE svg PUBLIC "-//W3C//DTD SVG 1.1//EN" "http://www.w3.org/Graphics/SVG/1.1/DTD/svg11.dtd">
<svg version="1.1" id="Capa_1" xmlns="http://www.w3.org/2000/svg" xmlns:xlink="http://www.w3.org/1999/xlink" x="0px" y="0px"
	 width="48px" height="48px" viewBox="0 0 48 48" enable-background="new 0 0 48 48" xml:space="preserve">
<circle opacity="0.2" fill="#FF931E" cx="24.001" cy="24" r="24"/>
<g>
	<g opacity="0.7">
		<g>
			<ellipse opacity="0.5" fill="#FF6969" cx="22.805" cy="36.453" rx="16.552" ry="1.357"/>
		</g>
		<g opacity="0.3">
			<ellipse opacity="0.8" fill="#FF6969" cx="22.807" cy="22.087" rx="15.22" ry="15.088"/>
			<ellipse opacity="0.6" fill="#FF6969" cx="10.898" cy="28.311" rx="8.918" ry="8.84"/>
			<ellipse opacity="0.6" fill="#FF6969" cx="34.71" cy="28.311" rx="8.918" ry="8.84"/>
			<ellipse opacity="0.5" fill="#FF6969" cx="37.518" cy="19.31" rx="6.11" ry="6.057"/>
			<ellipse opacity="0.5" fill="#FF6969" cx="8.09" cy="19.31" rx="6.11" ry="6.057"/>
		</g>
	</g>
	<g>
		<g opacity="0.5">
			<g>
				<path fill="#C58AF9" d="M5.313,21.655c-0.902,0-1.637-0.728-1.637-1.622s0.734-1.622,1.637-1.622s1.637,0.728,1.637,1.622
					S6.215,21.655,5.313,21.655z M5.313,19.012c-0.568,0-1.03,0.458-1.03,1.021s0.462,1.021,1.03,1.021
					c0.568,0,1.03-0.458,1.03-1.021S5.881,19.012,5.313,19.012z"/>
			</g>
			<g>
				<path fill="#C58AF9" d="M30.717,15.916c-0.641,0-1.162-0.517-1.162-1.152s0.521-1.153,1.162-1.153
					c0.642,0,1.163,0.517,1.163,1.153S31.358,15.916,30.717,15.916z M30.717,14.038c-0.403,0-0.731,0.326-0.731,0.726
					c0,0.399,0.328,0.725,0.731,0.725s0.731-0.326,0.731-0.725C31.448,14.364,31.12,14.038,30.717,14.038z"/>
			</g>
			<g>
				<path fill="#C58AF9" d="M22.801,31.264c-0.451,0-0.817-0.363-0.817-0.811s0.367-0.811,0.817-0.811
					c0.45,0,0.817,0.363,0.817,0.811S23.251,31.264,22.801,31.264z M22.801,29.943c-0.284,0-0.515,0.229-0.515,0.51
					s0.23,0.51,0.515,0.51c0.284,0,0.514-0.229,0.514-0.51S23.084,29.943,22.801,29.943z"/>
			</g>
		</g>
		<g opacity="0.3">
			<g>
				<path fill="#C58AF9" d="M7.024,26.953c-0.031,0-0.061-0.014-0.079-0.041l-0.454-0.658l-0.397,0.574
					C6.063,26.873,6.012,26.9,5.957,26.9l0,0c-0.054,0-0.105-0.027-0.136-0.072l-0.397-0.574l-0.397,0.574
					C4.996,26.873,4.945,26.9,4.89,26.9s-0.105-0.027-0.137-0.072l-0.397-0.574l-0.397,0.574C3.929,26.873,3.877,26.9,3.823,26.9
					c-0.054,0-0.105-0.027-0.136-0.072l-0.397-0.574l-0.454,0.658c-0.03,0.045-0.09,0.055-0.133,0.025
					c-0.044-0.031-0.055-0.09-0.025-0.133l0.477-0.689c0.031-0.045,0.082-0.072,0.136-0.072s0.105,0.027,0.137,0.072l0.397,0.576
					l0.397-0.576c0.031-0.045,0.082-0.072,0.137-0.072c0.054,0,0.105,0.027,0.136,0.072l0.397,0.576l0.397-0.576
					c0.03-0.045,0.081-0.072,0.136-0.072s0.105,0.027,0.137,0.072l0.397,0.576l0.397-0.576c0.031-0.045,0.082-0.072,0.137-0.072
					c0.054,0,0.105,0.027,0.136,0.072l0.477,0.689c0.029,0.043,0.018,0.102-0.025,0.133C7.062,26.949,7.043,26.953,7.024,26.953z"/>
			</g>
			<g>
				<path fill="#C58AF9" d="M19.682,13.673c-0.021,0-0.043-0.004-0.065-0.011c-0.102-0.036-0.155-0.146-0.119-0.247l0.494-1.389
					c0.035-0.098,0.116-0.172,0.218-0.199c0.101-0.026,0.208-0.002,0.288,0.065l0.911,0.776l0.399-1.123
					c0.035-0.098,0.116-0.172,0.218-0.199c0.101-0.026,0.208-0.002,0.288,0.065l0.911,0.776l0.399-1.123
					c0.035-0.098,0.116-0.172,0.218-0.199c0.101-0.027,0.208-0.002,0.288,0.065l0.911,0.776l0.4-1.124
					c0.034-0.098,0.115-0.172,0.217-0.199c0.101-0.027,0.209-0.002,0.288,0.065l1.128,0.96c0.081,0.069,0.09,0.191,0.021,0.272
					c-0.07,0.081-0.192,0.09-0.274,0.021l-1.047-0.892l-0.399,1.123c-0.036,0.098-0.116,0.172-0.218,0.199s-0.209,0.002-0.289-0.065
					l-0.911-0.776l-0.399,1.124c-0.035,0.098-0.116,0.172-0.217,0.199c-0.102,0.027-0.209,0.003-0.289-0.065l-0.911-0.775
					l-0.399,1.123c-0.035,0.098-0.116,0.172-0.217,0.199s-0.209,0.002-0.289-0.065l-0.911-0.776l-0.458,1.29
					C19.837,13.623,19.762,13.673,19.682,13.673z"/>
			</g>
			<g>
				<path fill="#C58AF9" d="M25.96,29.914c-0.009,0-0.02-0.002-0.028-0.004l-4.65-1.055c-0.065-0.016-0.106-0.082-0.091-0.145
					c0.015-0.064,0.08-0.105,0.146-0.09l4.65,1.055c0.065,0.016,0.106,0.08,0.092,0.145C26.064,29.875,26.015,29.914,25.96,29.914z"
					/>
			</g>
			<g>
				<path fill="#C58AF9" d="M41.055,19.438c-0.009,0.001-0.019,0.002-0.028,0.002l-4.771-0.004c-0.067,0-0.122-0.054-0.122-0.121
					s0.055-0.12,0.122-0.12l4.771,0.004c0.067,0,0.122,0.054,0.122,0.121C41.148,19.377,41.108,19.425,41.055,19.438z"/>
			</g>
			<g>
				<path fill="#C58AF9" d="M39.491,18.866c-0.03,0-0.061-0.014-0.079-0.041l-0.454-0.659l-0.397,0.575
					c-0.031,0.045-0.082,0.072-0.137,0.072l0,0c-0.055,0-0.105-0.027-0.137-0.072l-0.396-0.575l-0.397,0.575
					c-0.031,0.045-0.082,0.072-0.137,0.072c-0.054,0-0.105-0.027-0.137-0.072l-0.397-0.575l-0.396,0.575
					c-0.031,0.045-0.083,0.072-0.138,0.072s-0.104-0.027-0.136-0.072l-0.397-0.575l-0.454,0.659c-0.03,0.043-0.09,0.055-0.133,0.024
					c-0.045-0.03-0.057-0.089-0.026-0.132l0.477-0.69c0.031-0.045,0.082-0.072,0.137-0.072s0.105,0.027,0.136,0.072l0.397,0.575
					l0.397-0.575c0.031-0.045,0.081-0.072,0.136-0.072s0.106,0.027,0.138,0.072l0.396,0.575l0.396-0.575
					c0.031-0.045,0.083-0.072,0.138-0.072s0.104,0.027,0.136,0.072l0.397,0.575l0.397-0.575c0.03-0.045,0.082-0.072,0.137-0.072
					s0.104,0.027,0.136,0.072l0.477,0.69c0.03,0.043,0.019,0.102-0.025,0.132C39.529,18.861,39.51,18.866,39.491,18.866z"/>
			</g>
		</g>
	</g>
	<g>
		<path fill="#3E8BBA" d="M36.651,17.937c0-0.398-0.325-0.721-0.728-0.721H9.677c-0.402,0-0.728,0.323-0.728,0.721v1.381h27.703
			V17.937z"/>
		<linearGradient id="SVGID_1_" gradientUnits="userSpaceOnUse" x1="20.9229" y1="33.375" x2="28.5353" y2="9.912">
			<stop  offset="0" style="stop-color:#003A45"/>
			<stop  offset="1" style="stop-color:#006D8B"/>
		</linearGradient>
		<path fill="url(#SVGID_1_)" d="M8.949,19.318V35.74c0,0.398,0.326,0.721,0.728,0.721h26.247c0.402,0,0.728-0.322,0.728-0.721
			V19.318H8.949z"/>
		<g>
			<circle fill="#FFD07D" cx="33.395" cy="18.267" r="0.419"/>
			<circle fill="#FF7B7B" cx="34.809" cy="18.267" r="0.419"/>
			<circle fill="#68D359" cx="31.982" cy="18.267" r="0.419"/>
		</g>
	</g>
	<g>
		<g>
			<path fill="#FF6969" d="M24.665,33.902H14.96c-0.518,0-0.937-0.42-0.937-0.938v-4.656c0-0.52,0.419-0.938,0.937-0.938h9.705
				c0.517,0,0.937,0.418,0.937,0.938v4.656C25.602,33.482,25.182,33.902,24.665,33.902z"/>
		</g>
		<g opacity="0.8">
			<path fill="#FFFFFF" d="M17.736,30.504c-0.04,0.063-0.103,0.105-0.189,0.133c0.086,0.027,0.15,0.07,0.189,0.133
				c0.039,0.061,0.06,0.154,0.06,0.279v0.588c0,0.09,0.022,0.156,0.068,0.203s0.113,0.07,0.202,0.07h0.067v0.449h-0.215
				c-0.23,0-0.405-0.057-0.523-0.17c-0.119-0.113-0.179-0.275-0.179-0.488v-0.666c0-0.059-0.014-0.1-0.042-0.131
				c-0.028-0.029-0.068-0.043-0.12-0.043H16.93v-0.449h0.123c0.052,0,0.092-0.016,0.12-0.045c0.029-0.027,0.042-0.072,0.042-0.127
				v-0.666c0-0.215,0.06-0.377,0.179-0.49c0.118-0.111,0.293-0.17,0.523-0.17h0.215v0.449h-0.067c-0.089,0-0.156,0.023-0.202,0.07
				s-0.068,0.113-0.068,0.203v0.588C17.795,30.35,17.775,30.443,17.736,30.504z"/>
			<path fill="#FFFFFF" d="M19.547,28.914h0.531v3.445h-0.531V28.914z"/>
			<path fill="#FFFFFF" d="M22.694,30.412v0.449h-0.123c-0.052,0-0.092,0.014-0.121,0.043c-0.028,0.031-0.042,0.072-0.042,0.131
				v0.666c0,0.213-0.06,0.375-0.178,0.488c-0.119,0.113-0.293,0.17-0.523,0.17h-0.215V31.91h0.067c0.089,0,0.156-0.023,0.202-0.07
				c0.045-0.047,0.068-0.113,0.068-0.203v-0.588c0-0.125,0.02-0.219,0.06-0.279c0.04-0.063,0.103-0.105,0.189-0.133
				c-0.086-0.027-0.149-0.07-0.189-0.133c-0.04-0.061-0.06-0.154-0.06-0.279v-0.588c0-0.09-0.023-0.156-0.068-0.203
				c-0.046-0.047-0.113-0.07-0.202-0.07h-0.067v-0.449h0.215c0.23,0,0.405,0.059,0.523,0.17c0.118,0.113,0.178,0.275,0.178,0.49
				v0.666c0,0.055,0.014,0.1,0.042,0.127c0.029,0.029,0.069,0.045,0.121,0.045H22.694z"/>
		</g>
	</g>
	<g>
		<g>
			<path fill="#C58AF9" d="M11.568,25.93h6.976c0.372,0,0.674-0.301,0.674-0.674v-3.347c0-0.372-0.302-0.673-0.674-0.673h-6.976
				c-0.372,0-0.673,0.301-0.673,0.673v3.347C10.895,25.629,11.196,25.93,11.568,25.93z"/>
		</g>
		<g opacity="0.8">
			<path fill="#FFFFFF" d="M13.717,23.334l-0.826,0.3l0.826,0.297v0.307l-1.179-0.444v-0.319l1.179-0.445V23.334z"/>
			<path fill="#FFFFFF" d="M15.305,22.426h0.345l-0.817,2.314h-0.344L15.305,22.426z"/>
			<path fill="#FFFFFF" d="M17.574,23.475v0.319l-1.179,0.444v-0.307l0.825-0.297l-0.825-0.3V23.03L17.574,23.475z"/>
		</g>
	</g>
	<g>
		<g>
			<path fill="#51CAF4" d="M21.984,25.529h5.103c0.272,0,0.493-0.221,0.493-0.492v-2.449c0-0.272-0.221-0.493-0.493-0.493h-5.103
				c-0.272,0-0.493,0.221-0.493,0.493v2.449C21.492,25.309,21.712,25.529,21.984,25.529z"/>
		</g>
		<path opacity="0.8" fill="#FFFFFF" d="M25.72,24.014v-0.403l-0.335-0.117c-0.007-0.018-0.013-0.035-0.021-0.052l0.152-0.316
			l-0.144-0.143l-0.145-0.143l-0.319,0.152c-0.018-0.008-0.035-0.015-0.053-0.022l-0.118-0.331h-0.407l-0.117,0.331
			c-0.018,0.007-0.036,0.014-0.053,0.022l-0.319-0.152l-0.144,0.143l-0.144,0.143l0.153,0.316c-0.008,0.017-0.015,0.035-0.021,0.052
			l-0.334,0.117v0.403l0.334,0.117c0.006,0.018,0.014,0.035,0.021,0.053L23.555,24.5l0.144,0.141l0.144,0.145l0.319-0.152
			c0.017,0.008,0.035,0.016,0.053,0.021l0.117,0.33h0.407l0.118-0.33c0.018-0.006,0.035-0.014,0.053-0.021l0.319,0.152l0.145-0.145
			l0.144-0.141l-0.152-0.316c0.008-0.02,0.014-0.035,0.021-0.053L25.72,24.014z M24.536,24.223c-0.229,0-0.414-0.184-0.414-0.41
			s0.186-0.41,0.414-0.41s0.414,0.184,0.414,0.41S24.765,24.223,24.536,24.223z"/>
	</g>
	<path fill="#FF931E" d="M29.758,25h-1.883H27v0.934v3.229c-1-0.629-1.385-0.947-2.473-0.947c-1.446,0-2.552,0.518-3.567,1.541
		c-1.021,1.021-1.468,2.268-1.468,3.709c0,1.445,0.554,2.697,1.575,3.719c1.016,1.016,1.998,1.531,3.443,1.531
		c1.088,0,1.49-0.316,2.49-0.941v0.398V39h0.875h1.883H30v-0.828V25.934V25H29.758z M27,33.473c0,0.766,0.016,1.404-0.525,1.949
		c-0.543,0.537-1.038,0.801-1.805,0.801c-0.771,0-1.337-0.262-1.876-0.803c-0.545-0.545-0.774-1.184-0.774-1.955
		c0-0.766,0.284-1.402,0.829-1.947c0.539-0.541,1.184-0.803,1.956-0.803c0.766,0,1.124,0.264,1.667,0.803
		C27.01,32.061,27,32.699,27,33.467V33.473z"/>
	<g>
		<path fill="#FF931E" d="M30.853,38.563V18.278h7.239c2.268,0,4.147,0.652,5.637,1.954c1.527,1.34,2.292,3.069,2.292,5.188
			c0,2.191-0.773,4.063-2.32,5.607c-1.546,1.537-3.416,2.307-5.608,2.307h-4.118v5.229H30.853z M33.974,21.385v8.842h4.118
			c1.33,0,2.464-0.469,3.401-1.406c0.938-0.945,1.411-2.08,1.42-3.4h-0.014c0-1.182-0.404-2.128-1.21-2.841
			c-0.899-0.787-2.099-1.18-3.598-1.18v-0.014H33.974z"/>
	</g>
</g>
</svg>
