<?xml version="1.0" encoding="utf-8"?>
<!-- Generator: Adobe Illustrator 16.0.0, SVG Export Plug-In . SVG Version: 6.00 Build 0)  -->
<!DOCTYPE svg PUBLIC "-//W3C//DTD SVG 1.1//EN" "http://www.w3.org/Graphics/SVG/1.1/DTD/svg11.dtd">
<svg version="1.1" id="Capa_1" xmlns="http://www.w3.org/2000/svg" xmlns:xlink="http://www.w3.org/1999/xlink" x="0px" y="0px"
	 width="640px" height="640px" viewBox="0 0 640 640" enable-background="new 0 0 640 640" xml:space="preserve">
<rect x="1" fill="#101820" width="640" height="640"/>
<text transform="matrix(1 0 0 1 180.3403 -374.2012)" font-family="'Simplifica'" font-size="122.2501">daniel</text>
<text transform="matrix(1 0 0 1 461.6602 -368.2012)" font-family="'Simplifica'" font-size="122.2501">Peláez</text>
<text transform="matrix(1 0 0 1 766.5273 -358.1851)" font-family="'Simplifica'" font-size="122.2501">{</text>
<text transform="matrix(1 0 0 1 856.5225 -343.5117)" font-family="'Simplifica'" font-size="122.2501">}</text>
<path fill="#6399AE" d="M1289.967,320.907c1.648,0,3.117,0.317,4.408,0.949c1.289,0.633,2.377,1.484,3.262,2.556
	c0.881,1.072,1.498,2.323,1.852,3.752c0.354,1.431,0.389,2.941,0.107,4.535l-2.006,11.38c-0.281,1.595-0.832,3.079-1.652,4.453
	c-0.818,1.375-1.828,2.584-3.029,3.627c-1.203,1.045-2.533,1.896-3.996,2.557c-1.465,0.66-2.977,1.045-4.533,1.154h-0.412h-0.33h-8
	l-3.663,20.779h-2.722l9.829-55.742h1.401h1.32H1289.967z M1296.875,332.698c0.213-1.208,0.17-2.362-0.131-3.463
	c-0.303-1.099-0.793-2.062-1.471-2.886c-0.68-0.825-1.525-1.484-2.537-1.979c-1.014-0.495-2.15-0.742-3.416-0.742h-7.998
	l-5.205,29.521h8.164c1.264,0,2.488-0.248,3.678-0.742c1.186-0.496,2.25-1.154,3.193-1.979c0.941-0.824,1.74-1.773,2.398-2.846
	c0.654-1.072,1.094-2.238,1.318-3.504L1296.875,332.698z"/>
<path fill="#6399AE" d="M1335.686,320.907c1.648,0,3.117,0.317,4.408,0.949c1.289,0.633,2.377,1.484,3.262,2.556
	c0.881,1.072,1.498,2.323,1.852,3.752c0.354,1.431,0.389,2.941,0.107,4.535l-2.006,11.38c-0.281,1.595-0.832,3.079-1.652,4.453
	c-0.818,1.375-1.828,2.584-3.029,3.627c-1.203,1.045-2.533,1.896-3.996,2.557c-1.465,0.66-2.977,1.045-4.533,1.154h-0.412h-0.33h-8
	l-3.663,20.779h-2.722l9.829-55.742h1.401h1.32H1335.686z M1342.594,332.698c0.213-1.208,0.17-2.362-0.131-3.463
	c-0.303-1.099-0.793-2.062-1.471-2.886c-0.68-0.825-1.525-1.484-2.537-1.979c-1.014-0.495-2.15-0.742-3.416-0.742h-7.998
	l-5.205,29.521H1330c1.264,0,2.488-0.248,3.678-0.742c1.186-0.496,2.25-1.154,3.193-1.979c0.941-0.824,1.74-1.773,2.398-2.846
	c0.654-1.072,1.094-2.238,1.318-3.504L1342.594,332.698z"/>
<g>
	<g>
		<path fill="#6399AE" d="M326.187,302.106c1.531,0,2.896,0.294,4.092,0.88c1.197,0.586,2.205,1.377,3.024,2.372
			c0.819,0.995,1.392,2.155,1.72,3.481c0.326,1.327,0.359,2.729,0.1,4.208l-1.075,6.092c-0.26,1.479-0.771,2.856-1.531,4.131
			c-0.761,1.275-1.698,2.398-2.812,3.366c-1.115,0.97-2.352,1.759-3.708,2.372c-1.358,0.611-2.759,0.968-4.205,1.069h-0.382h-0.306
			h-7.422l-3.399,19.278h-2.524l8.331-47.25h1.301h1.223H326.187z M332.598,313.046c0.197-1.121,0.156-2.193-0.121-3.213
			c-0.281-1.02-0.734-1.913-1.365-2.677c-0.63-0.766-1.415-1.377-2.354-1.837c-0.939-0.458-1.997-0.688-3.168-0.688h-7.421
			l-4.042,22.923h7.573c1.173,0,2.31-0.229,3.41-0.688c1.102-0.459,2.089-1.071,2.965-1.836c0.873-0.765,1.615-1.646,2.226-2.64
			c0.607-0.994,1.015-2.077,1.223-3.251L332.598,313.046z"/>
	</g>
	<path fill="#6399AE" d="M216.56,290.232l-5.133,29.108l-3.417,19.378l-1.875,10.637h-2.721l0.596-3.381
		c-1.249,1.154-2.648,2.075-4.198,2.763c-1.551,0.687-3.15,1.03-4.799,1.03c-1.54,0-2.932-0.288-4.176-0.865
		c-1.246-0.577-2.275-1.36-3.09-2.35c-0.815-0.99-1.393-2.158-1.732-3.506c-0.34-1.346-0.374-2.789-0.103-4.328l3.417-19.378
		c0.271-1.539,0.814-2.981,1.629-4.329c0.814-1.346,1.804-2.515,2.968-3.504c1.164-0.989,2.47-1.773,3.919-2.35
		c1.448-0.577,2.942-0.866,4.482-0.866c1.649,0,3.129,0.33,4.443,0.989c1.312,0.66,2.384,1.595,3.216,2.804l3.853-21.852H216.56z
		 M195.492,347.046c1.155,0,2.278-0.219,3.374-0.659c1.094-0.439,2.079-1.03,2.952-1.772s1.618-1.621,2.238-2.639
		c0.618-1.017,1.03-2.103,1.234-3.257l3.417-19.378c0.204-1.154,0.175-2.239-0.085-3.257c-0.262-1.017-0.697-1.897-1.308-2.639
		c-0.612-0.742-1.388-1.333-2.326-1.773c-0.941-0.439-1.987-0.66-3.141-0.66s-2.279,0.22-3.373,0.66
		c-1.096,0.44-2.079,1.031-2.952,1.773c-0.873,0.742-1.62,1.622-2.238,2.639c-0.621,1.018-1.031,2.103-1.234,3.257l-3.417,19.378
		c-0.204,1.154-0.176,2.24,0.085,3.257c0.26,1.018,0.696,1.896,1.308,2.639s1.386,1.333,2.326,1.772
		C193.291,346.827,194.338,347.046,195.492,347.046z"/>
	<path fill="#6399AE" d="M230.856,308.291c1.539,0,2.889,0.289,4.053,0.866c1.163,0.577,2.111,1.361,2.843,2.35
		c0.732,0.99,1.24,2.158,1.526,3.504c0.284,1.348,0.292,2.791,0.02,4.329l-1.701,9.648l-1.716,9.73l-1.875,10.637h-2.721
		l0.596-3.381c-1.249,1.154-2.648,2.075-4.198,2.763c-1.551,0.687-3.15,1.03-4.8,1.03c-1.54,0-2.932-0.288-4.176-0.865
		c-1.247-0.577-2.275-1.36-3.09-2.35c-0.815-0.99-1.393-2.158-1.732-3.506c-0.34-1.346-0.374-2.789-0.102-4.328l0.407-2.31
		c0.601-3.407,3.125-5.882,7.576-7.421c0.533-0.22,1.429-0.549,2.689-0.989c1.259-0.439,2.607-0.921,4.047-1.443
		c1.438-0.521,2.831-1.017,4.179-1.484c1.346-0.466,2.374-0.837,3.083-1.113l0.814-4.618c0.407-2.309,0.052-4.273-1.063-5.896
		c-1.116-1.621-2.828-2.433-5.137-2.433c-1.154,0-2.266,0.22-3.332,0.66c-1.067,0.44-2.051,1.031-2.952,1.773
		c-0.901,0.742-1.661,1.622-2.279,2.639c-0.62,1.018-1.03,2.103-1.234,3.257h-2.721c0.271-1.539,0.814-2.981,1.629-4.329
		c0.814-1.346,1.804-2.515,2.968-3.504c1.164-0.989,2.469-1.773,3.919-2.35C227.823,308.58,229.317,308.291,230.856,308.291z
		 M234.876,328.988l0.364-2.062c-0.883,0.329-1.969,0.715-3.255,1.154c-1.287,0.44-2.577,0.895-3.868,1.36
		c-1.292,0.468-2.467,0.895-3.523,1.278c-1.058,0.386-1.821,0.66-2.29,0.825c-1.113,0.385-2.231,0.962-3.356,1.731
		c-1.125,0.77-1.804,1.813-2.037,3.133l-0.407,2.31c-0.203,1.154-0.176,2.24,0.085,3.257c0.26,1.018,0.696,1.896,1.308,2.639
		s1.386,1.333,2.326,1.772c0.938,0.44,1.986,0.659,3.141,0.659s2.278-0.219,3.374-0.659c1.094-0.439,2.078-1.03,2.951-1.772
		s1.618-1.621,2.238-2.639c0.619-1.017,1.031-2.103,1.234-3.257L234.876,328.988z"/>
	<path fill="#6399AE" d="M258.068,308.291c1.539,0,2.93,0.289,4.176,0.866c1.245,0.577,2.275,1.361,3.09,2.35
		c0.815,0.99,1.393,2.158,1.732,3.504c0.339,1.348,0.374,2.791,0.103,4.329l-1.701,9.648l-3.591,20.367h-2.72l3.591-20.367
		l1.701-9.648c0.203-1.154,0.175-2.239-0.086-3.257c-0.261-1.017-0.695-1.897-1.307-2.639c-0.612-0.742-1.388-1.333-2.327-1.773
		c-0.94-0.439-1.987-0.66-3.141-0.66c-1.155,0-2.28,0.22-3.374,0.66c-1.096,0.44-2.079,1.031-2.951,1.773
		c-0.873,0.742-1.62,1.622-2.238,2.639c-0.62,1.018-1.031,2.103-1.234,3.257l-1.701,9.648l-3.591,20.367h-2.721l3.591-20.367
		l1.701-9.648l1.875-10.637h2.721l-0.596,3.38c1.257-1.208,2.658-2.144,4.205-2.804
		C254.821,308.621,256.418,308.291,258.068,308.291z"/>
	<path fill="#6399AE" d="M277.737,308.044h2.72l-0.494,2.803l-6.688,37.931h-2.72l6.688-37.931h-2.722l0.494-2.803H277.737z
		 M280.053,298.644c-0.605,0-1.066-0.192-1.381-0.578c-0.318-0.384-0.423-0.878-0.316-1.484c0.107-0.604,0.386-1.099,0.84-1.484
		c0.451-0.384,0.98-0.577,1.585-0.577c0.549,0,0.997,0.193,1.342,0.577c0.344,0.385,0.462,0.88,0.356,1.484
		c-0.107,0.605-0.399,1.1-0.879,1.484C281.119,298.451,280.602,298.644,280.053,298.644z"/>
	<path fill="#6399AE" d="M299.998,326.762c-0.524,0.165-1.404,0.482-2.641,0.948c-1.237,0.468-2.573,0.948-4.006,1.443
		c-1.436,0.494-2.827,0.989-4.179,1.484c-1.352,0.494-2.406,0.853-3.157,1.071l-1.236,7.01c-0.204,1.154-0.177,2.24,0.085,3.257
		c0.26,1.018,0.696,1.896,1.307,2.639c0.612,0.742,1.386,1.333,2.327,1.772c0.939,0.44,1.987,0.659,3.141,0.659
		c1.156,0,2.278-0.219,3.374-0.659c1.093-0.439,2.078-1.03,2.951-1.772c0.873-0.742,1.618-1.621,2.239-2.639
		c0.618-1.017,1.03-2.103,1.234-3.257h2.721c-0.272,1.539-0.814,2.982-1.629,4.328c-0.815,1.348-1.804,2.516-2.968,3.506
		c-1.164,0.989-2.471,1.772-3.919,2.35c-1.45,0.577-2.944,0.865-4.482,0.865c-1.539,0-2.932-0.288-4.176-0.865
		c-1.246-0.577-2.275-1.36-3.09-2.35c-0.815-0.99-1.393-2.158-1.732-3.506c-0.34-1.346-0.375-2.789-0.103-4.328l3.417-19.378
		c0.271-1.539,0.814-2.981,1.63-4.329c0.814-1.346,1.803-2.515,2.967-3.504c1.165-0.989,2.47-1.773,3.919-2.35
		c1.448-0.577,2.942-0.866,4.481-0.866c1.538,0,2.931,0.289,4.177,0.866c1.245,0.577,2.275,1.361,3.09,2.35
		c0.814,0.99,1.392,2.158,1.732,3.504c0.339,1.348,0.378,2.762,0.116,4.247l-0.014,0.083
		C306.972,322.749,304.446,325.224,299.998,326.762z M297.992,311.012c-1.154,0-2.279,0.22-3.373,0.66
		c-1.096,0.44-2.078,1.031-2.952,1.773c-0.872,0.742-1.619,1.622-2.238,2.639c-0.62,1.018-1.03,2.103-1.234,3.257l-1.671,9.483
		c0.882-0.33,1.968-0.728,3.262-1.195c1.29-0.467,2.58-0.92,3.868-1.361c1.286-0.439,2.472-0.852,3.558-1.236
		c1.083-0.384,1.861-0.66,2.331-0.825c1.057-0.383,2.148-0.96,3.274-1.73c1.125-0.77,1.808-1.842,2.051-3.217
		c0.203-1.154,0.172-2.226-0.092-3.215c-0.267-0.99-0.704-1.856-1.315-2.598c-0.611-0.742-1.387-1.333-2.326-1.773
		C300.192,311.232,299.147,311.012,297.992,311.012z"/>
	<path fill="#6399AE" d="M307.642,349.355l10.425-59.123h2.721l-10.425,59.123H307.642z"/>
	<path fill="#6399AE" d="M355.116,326.762c-0.523,0.165-1.404,0.482-2.641,0.948c-1.236,0.468-2.572,0.948-4.006,1.443
		c-1.436,0.494-2.828,0.989-4.18,1.484c-1.352,0.494-2.404,0.853-3.156,1.071l-1.236,7.01c-0.203,1.154-0.176,2.24,0.086,3.257
		c0.26,1.018,0.697,1.896,1.307,2.639c0.611,0.742,1.385,1.333,2.326,1.772c0.939,0.44,1.986,0.659,3.141,0.659
		s2.279-0.219,3.373-0.659c1.094-0.439,2.078-1.03,2.953-1.772c0.873-0.742,1.617-1.621,2.236-2.639
		c0.619-1.017,1.031-2.103,1.234-3.257h2.723c-0.271,1.539-0.816,2.982-1.629,4.328c-0.816,1.348-1.805,2.516-2.969,3.506
		c-1.164,0.989-2.471,1.772-3.92,2.35s-2.943,0.865-4.48,0.865c-1.541,0-2.934-0.288-4.178-0.865c-1.246-0.577-2.275-1.36-3.09-2.35
		c-0.814-0.99-1.393-2.158-1.732-3.506c-0.34-1.346-0.373-2.789-0.102-4.328l3.416-19.378c0.271-1.539,0.814-2.981,1.629-4.329
		c0.814-1.346,1.805-2.515,2.969-3.504c1.164-0.989,2.469-1.773,3.918-2.35s2.943-0.866,4.482-0.866s2.93,0.289,4.178,0.866
		c1.244,0.577,2.273,1.361,3.09,2.35c0.814,0.99,1.391,2.158,1.73,3.504c0.34,1.348,0.381,2.762,0.119,4.247l-0.016,0.083
		C362.091,322.749,359.565,325.224,355.116,326.762z M353.11,311.012c-1.154,0-2.279,0.22-3.373,0.66
		c-1.096,0.44-2.078,1.031-2.951,1.773c-0.873,0.742-1.619,1.622-2.238,2.639c-0.619,1.018-1.029,2.103-1.232,3.257l-1.674,9.483
		c0.885-0.33,1.971-0.728,3.264-1.195c1.289-0.467,2.578-0.92,3.867-1.361c1.285-0.439,2.471-0.852,3.557-1.236
		c1.084-0.384,1.861-0.66,2.33-0.825c1.059-0.383,2.15-0.96,3.275-1.73c1.125-0.77,1.809-1.842,2.051-3.217
		c0.203-1.154,0.172-2.226-0.092-3.215c-0.268-0.99-0.705-1.856-1.314-2.598c-0.613-0.742-1.389-1.333-2.326-1.773
		C355.312,311.232,354.265,311.012,353.11,311.012z"/>
	<path fill="#6399AE" d="M362.761,349.355l10.424-59.123h2.721l-10.424,59.123H362.761z"/>
	<path fill="#6399AE" d="M391.026,308.291c1.539,0,2.891,0.289,4.053,0.866c1.164,0.577,2.111,1.361,2.844,2.35
		c0.732,0.99,1.24,2.158,1.525,3.504c0.285,1.348,0.291,2.791,0.021,4.329l-1.701,9.648l-1.717,9.73l-1.875,10.637h-2.723
		l0.598-3.381c-1.248,1.154-2.648,2.075-4.199,2.763c-1.551,0.687-3.148,1.03-4.799,1.03c-1.539,0-2.932-0.288-4.176-0.865
		c-1.246-0.577-2.275-1.36-3.092-2.35c-0.813-0.99-1.391-2.158-1.73-3.506c-0.34-1.346-0.373-2.789-0.102-4.328l0.406-2.31
		c0.602-3.407,3.125-5.882,7.574-7.421c0.535-0.22,1.43-0.549,2.689-0.989c1.26-0.439,2.607-0.921,4.049-1.443
		c1.438-0.521,2.83-1.017,4.178-1.484c1.348-0.466,2.375-0.837,3.082-1.113l0.814-4.618c0.408-2.309,0.053-4.273-1.063-5.896
		c-1.115-1.621-2.828-2.433-5.137-2.433c-1.154,0-2.266,0.22-3.332,0.66c-1.066,0.44-2.051,1.031-2.951,1.773
		c-0.902,0.742-1.662,1.622-2.281,2.639c-0.619,1.018-1.029,2.103-1.232,3.257h-2.721c0.27-1.539,0.814-2.981,1.629-4.329
		c0.814-1.346,1.805-2.515,2.969-3.504c1.162-0.989,2.469-1.773,3.918-2.35C387.993,308.58,389.487,308.291,391.026,308.291z
		 M395.046,328.988l0.363-2.062c-0.883,0.329-1.967,0.715-3.254,1.154c-1.287,0.44-2.578,0.895-3.867,1.36
		c-1.293,0.468-2.467,0.895-3.523,1.278c-1.059,0.386-1.822,0.66-2.291,0.825c-1.111,0.385-2.23,0.962-3.355,1.731
		s-1.805,1.813-2.037,3.133l-0.408,2.31c-0.201,1.154-0.174,2.24,0.086,3.257c0.26,1.018,0.697,1.896,1.309,2.639
		c0.609,0.742,1.385,1.333,2.326,1.772c0.939,0.44,1.986,0.659,3.141,0.659s2.277-0.219,3.373-0.659
		c1.094-0.439,2.078-1.03,2.951-1.772s1.619-1.621,2.238-2.639c0.619-1.017,1.029-2.103,1.234-3.257L395.046,328.988z
		 M400.548,294.521l0.357,2.639l-16.703,4.947l-0.361-2.638L400.548,294.521z"/>
	<path fill="#6399AE" d="M419.765,326.762c-0.525,0.165-1.404,0.482-2.641,0.948c-1.238,0.468-2.574,0.948-4.008,1.443
		c-1.434,0.494-2.826,0.989-4.178,1.484c-1.354,0.494-2.406,0.853-3.158,1.071l-1.236,7.01c-0.203,1.154-0.174,2.24,0.086,3.257
		c0.26,1.018,0.697,1.896,1.309,2.639c0.609,0.742,1.385,1.333,2.324,1.772c0.939,0.44,1.988,0.659,3.143,0.659
		s2.277-0.219,3.373-0.659c1.094-0.439,2.078-1.03,2.951-1.772s1.617-1.621,2.238-2.639c0.619-1.017,1.029-2.103,1.234-3.257h2.721
		c-0.271,1.539-0.814,2.982-1.629,4.328c-0.816,1.348-1.803,2.516-2.969,3.506c-1.164,0.989-2.471,1.772-3.918,2.35
		c-1.449,0.577-2.943,0.865-4.482,0.865c-1.541,0-2.932-0.288-4.176-0.865c-1.246-0.577-2.275-1.36-3.092-2.35
		c-0.813-0.99-1.393-2.158-1.732-3.506c-0.338-1.346-0.371-2.789-0.102-4.328l3.418-19.378c0.27-1.539,0.814-2.981,1.629-4.329
		c0.814-1.346,1.805-2.515,2.969-3.504c1.162-0.989,2.469-1.773,3.918-2.35c1.447-0.577,2.941-0.866,4.48-0.866
		s2.932,0.289,4.178,0.866c1.244,0.577,2.275,1.361,3.09,2.35c0.816,0.99,1.393,2.158,1.732,3.504
		c0.34,1.348,0.379,2.762,0.117,4.247l-0.014,0.083C426.739,322.749,424.212,325.224,419.765,326.762z M417.759,311.012
		c-1.154,0-2.279,0.22-3.373,0.66c-1.096,0.44-2.078,1.031-2.951,1.773c-0.873,0.742-1.619,1.622-2.24,2.639
		c-0.619,1.018-1.029,2.103-1.232,3.257l-1.672,9.483c0.883-0.33,1.969-0.728,3.262-1.195c1.291-0.467,2.58-0.92,3.869-1.361
		c1.285-0.439,2.471-0.852,3.557-1.236c1.084-0.384,1.861-0.66,2.33-0.825c1.057-0.383,2.148-0.96,3.273-1.73
		c1.125-0.77,1.809-1.842,2.053-3.217c0.203-1.154,0.172-2.226-0.094-3.215c-0.266-0.99-0.703-1.856-1.314-2.598
		c-0.611-0.742-1.387-1.333-2.326-1.773C419.958,311.232,418.913,311.012,417.759,311.012z"/>
	<path fill="#6399AE" d="M426.647,346.635l24.104-35.209h-17.895l0.48-2.722h20.945l-0.48,2.722l-24.104,35.209h17.895l-0.479,2.721
		h-20.945L426.647,346.635z"/>
	<g>
		<g>
			<g>
				<path fill="#6399AE" d="M152.113,425.65c-4.545-0.053-8.732-0.964-12.451-2.709c-3.838-1.808-7.042-4.268-9.523-7.312
					c-2.487-3.053-4.262-6.703-5.277-10.85c-1.018-4.149-1.112-8.646-0.281-13.365l6.479-36.743
					c1.31-7.425,0.801-13.865-1.513-19.144c-1.993-4.53-10.486-9.877-13.183-11.488c3.094-1.536,13.667-6.994,17.27-11.552
					c4.156-5.258,6.927-11.691,8.236-19.12l7.895-44.772c0.834-4.731,2.513-9.208,4.991-13.306
					c2.481-4.106,5.561-7.751,9.155-10.834c3.584-3.075,7.685-5.557,12.186-7.377c4.295-1.736,8.758-2.653,13.274-2.727l-1.22,6.923
					c-3.587,0.054-7.112,0.794-10.484,2.202c-3.483,1.452-6.697,3.421-9.553,5.852c-2.849,2.424-5.322,5.294-7.35,8.531
					c-2.03,3.247-3.393,6.784-4.051,10.514l-7.885,44.724c-1.171,6.641-3.445,12.732-6.759,18.104
					c-3.303,5.35-7.539,9.497-12.59,12.323l-0.696,0.39l0.654,0.457c4.015,2.803,6.762,6.915,8.166,12.223
					c1.415,5.358,1.539,11.436,0.371,18.061l-6.488,36.793c-0.66,3.744-0.543,7.298,0.347,10.563c0.892,3.253,2.364,6.146,4.376,8.6
					c2.021,2.454,4.563,4.439,7.555,5.902c2.85,1.392,6.067,2.133,9.57,2.209L152.113,425.65z"/>
				<path fill="#101820" d="M188.772,214.868l-1.042,5.917c-3.508,0.104-6.954,0.853-10.254,2.231
					c-3.531,1.472-6.79,3.468-9.685,5.932c-2.888,2.458-5.395,5.367-7.45,8.647c-2.064,3.301-3.451,6.898-4.12,10.691l-7.885,44.724
					c-1.16,6.579-3.412,12.61-6.692,17.928c-3.257,5.277-7.432,9.365-12.409,12.149l-1.393,0.779l1.309,0.914
					c3.915,2.732,6.596,6.75,7.968,11.939c1.396,5.289,1.518,11.293,0.362,17.847l-6.488,36.793
					c-0.672,3.817-0.552,7.444,0.358,10.783c0.91,3.32,2.415,6.276,4.473,8.785c2.065,2.509,4.663,4.538,7.722,6.033
					c2.756,1.346,5.846,2.098,9.197,2.24l-1.047,5.939c-4.309-0.102-8.282-0.993-11.818-2.653c-3.771-1.775-6.916-4.189-9.349-7.175
					c-2.439-2.995-4.182-6.58-5.18-10.653c-1.001-4.081-1.093-8.509-0.274-13.159l6.479-36.743
					c1.327-7.523,0.806-14.061-1.548-19.432c-1.883-4.28-9.299-9.207-12.609-11.246c3.847-1.951,13.238-6.99,16.631-11.283
					c4.207-5.323,7.012-11.832,8.336-19.343l7.895-44.772c0.823-4.669,2.48-9.088,4.926-13.134
					c2.453-4.061,5.499-7.665,9.052-10.713c3.543-3.04,7.597-5.494,12.048-7.292C180.329,215.908,184.525,215.01,188.772,214.868
					 M189.967,213.848c-4.804,0-9.493,0.923-14.059,2.769c-4.57,1.847-8.677,4.332-12.324,7.461
					c-3.647,3.129-6.734,6.78-9.257,10.955c-2.523,4.173-4.208,8.667-5.055,13.478l-7.895,44.772
					c-1.302,7.386-4.015,13.683-8.136,18.897C129.117,317.396,115.307,324,115.307,324s11.494,6.53,13.781,11.729
					c2.283,5.207,2.778,11.492,1.479,18.855l-6.479,36.743c-0.846,4.804-0.752,9.331,0.288,13.571
					c1.038,4.239,2.832,7.923,5.375,11.047c2.546,3.123,5.779,5.602,9.698,7.447c3.916,1.838,8.278,2.759,13.082,2.759l1.396-7.924
					c-3.685,0-6.997-0.725-9.945-2.164c-2.951-1.442-5.41-3.368-7.388-5.771c-1.976-2.409-3.403-5.215-4.28-8.414
					c-0.875-3.208-0.988-6.653-0.337-10.345l6.488-36.793c1.188-6.734,1.059-12.823-0.38-18.275
					c-1.441-5.449-4.23-9.62-8.363-12.505c5.149-2.882,9.408-7.049,12.771-12.497c3.361-5.449,5.639-11.546,6.826-18.28
					l7.885-44.724c0.65-3.685,1.978-7.129,3.983-10.335c2.007-3.204,4.422-6.01,7.25-8.416c2.826-2.406,5.965-4.33,9.422-5.771
					c3.455-1.443,7.025-2.166,10.711-2.166L189.967,213.848L189.967,213.848z"/>
			</g>
		</g>
		<g>
			<g>
				<path fill="#6399AE" d="M452.132,419.925c3.624-0.054,7.191-0.802,10.612-2.226c3.527-1.473,6.78-3.465,9.669-5.922
					c2.884-2.457,5.386-5.361,7.438-8.633c2.055-3.285,3.436-6.868,4.104-10.649l6.566-37.242c1.184-6.716,3.484-12.881,6.84-18.323
					c3.346-5.421,7.635-9.621,12.748-12.483l0.697-0.391l-0.655-0.456c-4.065-2.831-6.848-6.992-8.27-12.367
					c-1.433-5.423-1.559-11.576-0.374-18.288l7.982-45.27c0.666-3.785,0.547-7.377-0.355-10.678
					c-0.898-3.295-2.388-6.225-4.426-8.707c-2.038-2.479-4.611-4.489-7.647-5.973c-2.884-1.41-6.141-2.162-9.691-2.237l1.24-7.026
					c4.593,0.053,8.79,0.978,12.483,2.752c3.808,1.832,7.022,4.327,9.557,7.417c2.545,3.098,4.391,6.765,5.485,10.899
					c1.095,4.139,1.224,8.657,0.384,13.429l-8.098,45.903h0.247c-1.202,7.288-0.657,13.62,1.623,18.829
					c2.015,4.606,10.628,10.045,13.346,11.675c-3.119,1.542-13.839,7.052-17.48,11.652c-4.128,5.214-6.903,11.569-8.253,18.896
					h-0.246l-6.629,37.604c-0.846,4.783-2.58,9.347-5.155,13.563c-2.584,4.231-5.748,7.953-9.405,11.062
					c-3.65,3.105-7.773,5.614-12.255,7.456c-4.278,1.752-8.756,2.677-13.318,2.751L452.132,419.925z"/>
				<path fill="#101820" d="M489.027,213.562c4.354,0.103,8.336,1.008,11.849,2.696c3.741,1.8,6.899,4.25,9.388,7.284
					c2.498,3.042,4.312,6.645,5.388,10.709c1.076,4.068,1.202,8.514,0.375,13.214l-7.994,45.316l-0.207,1.174h0.257
					c-1.095,7.141-0.508,13.37,1.751,18.529c1.904,4.354,9.434,9.369,12.772,11.432c-3.881,1.96-13.409,7.05-16.842,11.385
					c-4.102,5.182-6.883,11.471-8.275,18.706h-0.25l-0.146,0.826l-6.557,37.191c-0.835,4.722-2.547,9.227-5.09,13.39
					c-2.557,4.187-5.687,7.867-9.302,10.941c-3.611,3.071-7.689,5.553-12.12,7.374c-4.031,1.651-8.241,2.558-12.531,2.699
					l1.06-6.014c3.545-0.103,7.034-0.86,10.384-2.255c3.575-1.492,6.872-3.512,9.801-6.003c2.923-2.489,5.458-5.433,7.537-8.748
					c2.089-3.34,3.493-6.982,4.172-10.827l6.566-37.242c1.173-6.654,3.451-12.76,6.772-18.147
					c3.302-5.348,7.529-9.489,12.567-12.311l1.394-0.78l-1.311-0.912c-3.965-2.761-6.681-6.827-8.071-12.084
					c-1.414-5.353-1.537-11.434-0.365-18.073l7.983-45.271c0.679-3.858,0.556-7.524-0.366-10.896
					c-0.917-3.364-2.438-6.356-4.522-8.893c-2.083-2.535-4.712-4.589-7.813-6.105c-2.791-1.365-5.92-2.126-9.318-2.269
					L489.027,213.562 M488.19,212.552l-1.416,8.022c3.729,0,7.08,0.732,10.066,2.192c2.982,1.458,5.479,3.406,7.48,5.841
					c2,2.435,3.445,5.276,4.33,8.521c0.887,3.243,1.002,6.73,0.346,10.459l-7.982,45.27c-1.203,6.816-1.074,12.987,0.383,18.502
					c1.459,5.515,4.279,9.733,8.467,12.649c-5.217,2.921-9.525,7.143-12.93,12.657c-3.402,5.52-5.705,11.683-6.906,18.499
					l-6.566,37.242c-0.66,3.736-2.004,7.224-4.035,10.471c-2.031,3.239-4.475,6.078-7.338,8.518
					c-2.857,2.431-6.039,4.381-9.537,5.841c-3.5,1.457-7.111,2.19-10.84,2.19l-1.414,8.021c4.861,0,9.563-0.933,14.105-2.793
					c4.543-1.868,8.672-4.377,12.389-7.538c3.719-3.161,6.887-6.89,9.508-11.182s4.361-8.875,5.221-13.737l6.557-37.191h0.244
					c1.313-7.453,4.055-13.814,8.227-19.085c4.166-5.263,18.146-11.922,18.146-11.922s-11.634-6.635-13.944-11.917
					c-2.311-5.278-2.809-11.652-1.488-19.128h-0.244l7.994-45.316c0.857-4.871,0.725-9.42-0.393-13.644
					c-1.119-4.226-2.979-7.919-5.582-11.088c-2.598-3.167-5.844-5.682-9.727-7.55C497.421,213.488,493.05,212.552,488.19,212.552
					L488.19,212.552z"/>
			</g>
		</g>
	</g>
</g>
<g>
	<g>
		<g>
			<path fill="#6399AE" d="M1269.942,609.669l0.021-0.117c3.748,0,6.671-1.326,8.771-3.982c2.098-2.654,3.479-5.859,4.142-9.619
				l4.019-22.79c0.432-2.448,1.289-4.736,2.573-6.86c1.284-2.125,2.855-3.983,4.712-5.576s3.947-2.857,6.273-3.798
				c2.324-0.939,4.711-1.409,7.156-1.409l-0.711,4.034c-1.876,0-3.693,0.368-5.452,1.103c-1.76,0.733-3.357,1.713-4.796,2.938
				c-1.439,1.225-2.669,2.653-3.69,4.284c-1.021,1.632-1.696,3.385-2.027,5.261l-4.014,22.766c-0.604,3.428-1.764,6.531-3.475,9.305
				c-1.712,2.773-3.88,4.895-6.501,6.361c2.104,1.469,3.523,3.592,4.257,6.365c0.732,2.775,0.798,5.875,0.193,9.303l-3.303,18.729
				c-0.331,1.879-0.273,3.633,0.172,5.266c0.446,1.629,1.173,3.057,2.179,4.283c1.007,1.223,2.259,2.203,3.761,2.938
				c1.501,0.732,3.187,1.102,5.063,1.102l-0.711,4.033c-2.445,0-4.666-0.469-6.659-1.404c-1.995-0.939-3.641-2.201-4.937-3.791
				c-1.295-1.59-2.208-3.465-2.736-5.623c-0.529-2.158-0.577-4.463-0.146-6.908l3.298-18.703c0.661-3.748,0.409-6.947-0.753-9.598
				c-1.164-2.646-3.62-3.973-7.367-3.973L1269.942,609.669z"/>
		</g>
		<g>
			<path fill="#6399AE" d="M1543.424,613.585c-3.75,0-6.674,1.326-8.77,3.973c-2.098,2.65-3.477,5.85-4.137,9.598h-0.123
				l-3.297,18.703c-0.432,2.445-1.308,4.75-2.625,6.908c-1.318,2.158-2.911,4.033-4.781,5.623c-1.869,1.59-3.946,2.852-6.23,3.791
				c-2.285,0.936-4.648,1.404-7.094,1.404l0.711-4.033c1.875,0,3.691-0.369,5.451-1.102c1.76-0.734,3.359-1.715,4.797-2.938
				c1.439-1.227,2.668-2.654,3.689-4.283c1.021-1.633,1.697-3.387,2.029-5.266l3.303-18.729c0.604-3.428,1.762-6.527,3.473-9.303
				c1.712-2.773,3.879-4.896,6.502-6.365c-2.105-1.467-3.523-3.588-4.258-6.361c-0.732-2.773-0.797-5.877-0.192-9.305l4.015-22.766
				c0.33-1.875,0.271-3.629-0.174-5.26c-0.445-1.632-1.172-3.061-2.178-4.285c-1.007-1.225-2.262-2.204-3.762-2.938
				c-1.502-0.734-3.188-1.103-5.063-1.103l0.712-4.034c2.444,0,4.643,0.471,6.598,1.41c1.952,0.939,3.585,2.204,4.892,3.797
				c1.309,1.594,2.244,3.451,2.807,5.576c0.563,2.124,0.629,4.412,0.197,6.861l-4.02,22.789h0.123
				c-0.664,3.76-0.414,6.965,0.748,9.619c1.162,2.656,3.617,3.982,7.367,3.982l-0.021,0.117L1543.424,613.585z"/>
		</g>
	</g>
	<g>
		<g>
			<path fill="#6399AE" d="M1406.822,584.086l-4.392,24.9l-2.923,16.577l-1.604,9.1h-2.327l0.51-2.892
				c-1.068,0.986-2.266,1.775-3.591,2.363c-1.327,0.587-2.695,0.881-4.106,0.881c-1.317,0-2.508-0.247-3.572-0.74
				c-1.066-0.494-1.946-1.164-2.644-2.011s-1.191-1.845-1.481-2.998c-0.291-1.151-0.32-2.386-0.088-3.703l2.923-16.577
				c0.232-1.316,0.696-2.55,1.394-3.703c0.697-1.151,1.543-2.151,2.539-2.998s2.112-1.517,3.353-2.01
				c1.238-0.494,2.517-0.741,3.834-0.741c1.411,0,2.677,0.282,3.801,0.847c1.123,0.564,2.04,1.364,2.752,2.398l3.296-18.693
				H1406.822z M1388.8,632.688c0.987,0,1.948-0.188,2.886-0.564c0.936-0.376,1.777-0.882,2.524-1.518
				c0.747-0.634,1.384-1.386,1.915-2.257c0.529-0.869,0.881-1.799,1.056-2.786l2.923-16.577c0.174-0.987,0.149-1.915-0.073-2.786
				c-0.224-0.869-0.596-1.622-1.118-2.257c-0.523-0.635-1.188-1.14-1.99-1.517c-0.805-0.376-1.699-0.564-2.688-0.564
				c-0.987,0-1.949,0.188-2.885,0.564c-0.938,0.377-1.778,0.882-2.525,1.517s-1.386,1.388-1.915,2.257
				c-0.53,0.871-0.881,1.799-1.056,2.786l-2.923,16.577c-0.174,0.987-0.15,1.917,0.073,2.786c0.223,0.871,0.596,1.623,1.119,2.257
				c0.522,0.636,1.185,1.142,1.989,1.518C1386.916,632.501,1387.812,632.688,1388.8,632.688z"/>
		</g>
		<g>
			<path fill="#6399AE" d="M1424.54,585.708c1.411,0,2.669,0.271,3.772,0.812c1.104,0.541,2.034,1.27,2.789,2.187
				c0.755,0.918,1.283,1.987,1.586,3.21c0.301,1.224,0.332,2.517,0.091,3.88l-1.716,9.734c-0.241,1.365-0.711,2.635-1.412,3.81
				c-0.702,1.176-1.566,2.21-2.594,3.104c-1.028,0.895-2.167,1.622-3.419,2.187s-2.544,0.894-3.877,0.987h-0.353h-0.282h-6.843
				l-3.134,17.776h-2.327l8.407-47.686h1.199h1.128H1424.54z M1430.451,595.796c0.182-1.034,0.146-2.021-0.112-2.963
				c-0.258-0.939-0.677-1.764-1.258-2.469s-1.305-1.27-2.171-1.693c-0.866-0.423-1.84-0.635-2.921-0.635h-6.843l-4.453,25.254h6.984
				c1.08,0,2.129-0.212,3.145-0.636c1.015-0.423,1.926-0.987,2.732-1.692c0.806-0.706,1.49-1.517,2.052-2.434
				c0.561-0.917,0.937-1.916,1.128-2.998L1430.451,595.796z"/>
		</g>
	</g>
</g>
</svg>
